<?xml version="1.0" encoding="UTF-8"?>
<svg width="80px" height="74px" viewBox="0 0 80 74" version="1.1" xmlns="http://www.w3.org/2000/svg" xmlns:xlink="http://www.w3.org/1999/xlink">
    <title>3d</title>
    <g id="Typography" stroke="none" stroke-width="1" fill="none" fill-rule="evenodd">
        <g id="Education" transform="translate(-1000.000000, -4380.000000)">
            <g id="3d" transform="translate(1000.000000, 4380.000000)">
                <path d="M68.2786424,39.7078788 L27.4514909,70.3575758 C20.1937939,75.806303 9.89270303,74.3396364 4.44349091,67.0814545 L3.35064242,65.6259394 C-2.09808485,58.3667879 -0.630933333,48.065697 6.62676364,42.6174545 L47.4539152,11.9682424 C54.712097,6.5190303 65.0131879,7.98618182 70.4619152,15.2443636 L71.5547636,16.6998788 C77.0039758,23.9585455 75.5368242,34.2591515 68.2786424,39.7078788" id="Fill-13" fill="#FFE137"></path>
                <polygon id="Fill-15" fill="#FFFFFF" points="46.0771879 35.9313455 61.9399758 25.6976485 61.9399758 49.235103 46.0771879 59.9817697"></polygon>
                <polygon id="Fill-17" fill="#FFFFFF" points="30.7261091 26.2092606 46.0773818 35.9314424 46.0773818 59.4698667 29.7025939 49.2356848"></polygon>
                <polygon id="Fill-33" fill="#E2E2E2" points="30.0878545 25.5283879 46.1397333 36.2289939 62.192097 25.5283879 46.1397333 14.8268121"></polygon>
                <polygon id="Fill-39" fill="#FFE137" points="62.192 26.8659879 62.192 49.6058667 55.5035152 53.6194424 55.5035152 29.5413818"></polygon>
                <line x1="52.8312242" y1="19.6780121" x2="46.1398303" y2="15.4957091" id="Fill-92" fill="#E2E2E2"></line>
                <path d="M52.8295273,21.0151758 C52.587103,21.0151758 52.3422545,20.9497212 52.1221333,20.8110545 L45.4312242,16.6297212 C44.8043152,16.2384485 44.6142545,15.4132364 45.0055273,14.7858424 C45.3963152,14.1623273 46.2234667,13.9688727 46.8484364,14.3616 L53.5393455,18.5429333 C54.1667394,18.9342061 54.3563152,19.7594182 53.9655273,20.3868121 C53.7114667,20.7916606 53.2755879,21.0151758 52.8295273,21.0151758" id="Fill-93" fill="#1A1A1A"></path>
                <polyline id="Fill-94" fill="#E2E2E2" points="40.7914182 32.2182788 46.1397818 35.5613091 62.1921455 25.5283394 56.8423273 22.1853091"></polyline>
                <path d="M46.1399273,36.8986667 C45.8936242,36.8986667 45.6478061,36.8298182 45.4310788,36.6945455 L40.0822303,33.352 C39.4553212,32.9612121 39.2652606,32.136 39.6565333,31.5086061 C40.0487758,30.881697 40.8739879,30.6887273 41.4999273,31.0843636 L46.1399273,33.982303 L59.6681697,25.5284848 L56.1336242,23.3190303 C55.5067152,22.9292121 55.3166545,22.1025455 55.7079273,21.4756364 C56.0996848,20.849697 56.924897,20.6586667 57.5513212,21.0509091 L62.9006545,24.3944242 C63.2919273,24.6387879 63.529503,25.0673939 63.529503,25.5284848 C63.529503,25.9895758 63.2919273,26.4181818 62.9006545,26.6625455 L46.8482909,36.6945455 C46.6315636,36.8298182 46.3862303,36.8986667 46.1399273,36.8986667" id="Fill-95" fill="#1A1A1A"></path>
                <polyline id="Fill-96" fill="#E2E2E2" points="46.1399273 15.4957576 30.0880485 25.5277576 36.5127758 29.5442424"></polyline>
                <path d="M36.5116121,30.8816485 C36.2691879,30.8816485 36.0243394,30.8161939 35.8042182,30.6780121 L29.3794909,26.662497 C28.9877333,26.4181333 28.7501576,25.9895273 28.7501576,25.5284364 C28.7501576,25.0673455 28.9877333,24.6387394 29.3794909,24.3943758 L45.4308848,14.3618909 C46.0573091,13.9701333 46.8825212,14.1597091 47.2742788,14.7866182 C47.6655515,15.4135273 47.4754909,16.2392242 46.8485818,16.6290424 L32.6119758,25.5284364 L37.2214303,28.4094061 C37.8488242,28.8006788 38.0388848,29.6263758 37.6476121,30.2532848 C37.3935515,30.6595879 36.9576727,30.8816485 36.5116121,30.8816485" id="Fill-97" fill="#1A1A1A"></path>
                <path d="M39.4476606,46.0937697 C39.2052364,46.0937697 38.9603879,46.0283152 38.7402667,45.8896485 L29.379297,40.0389818 C28.751903,39.6481939 28.5618424,38.8229818 28.9531152,38.1955879 C29.3453576,37.5686788 30.1710545,37.3771636 30.7965091,37.7713455 L40.1574788,43.6215273 C40.7843879,44.0128 40.9744485,44.838497 40.5836606,45.4654061 C40.3291152,45.8717091 39.8937212,46.0937697 39.4476606,46.0937697" id="Fill-98" fill="#1A1A1A"></path>
                <path d="M52.8295273,46.0951758 C52.3834667,46.0951758 51.9475879,45.8731152 51.6935273,45.4668121 C51.3027394,44.8394182 51.4923152,44.0142061 52.1197091,43.6229333 L61.483103,37.771297 C62.1080727,37.3785697 62.9352242,37.5686303 63.326497,38.1955394 C63.7177697,38.8229333 63.5277091,39.6481455 62.9003152,40.0389333 L53.5369212,45.8910545 C53.3168,46.0297212 53.0719515,46.0951758 52.8295273,46.0951758" id="Fill-99" fill="#1A1A1A"></path>
                <path d="M46.1399273,61.6453818 C45.8810182,61.6453818 45.6225939,61.5712 45.3981091,61.420897 L29.3457455,50.7193212 C28.9733818,50.4710788 28.7503515,50.0531394 28.7503515,49.6065939 L28.7503515,25.5285333 C28.7503515,24.7881697 29.3491394,24.1908364 30.0880485,24.1908364 C30.8264727,24.1908364 31.4252606,24.7881697 31.4252606,25.5285333 L31.4252606,48.8899879 L46.1171394,58.6853818 L60.8541091,48.2446545 L60.8541091,25.5285333 C60.8541091,24.7881697 61.452897,24.1908364 62.1918061,24.1908364 C62.9307152,24.1908364 63.529503,24.7881697 63.529503,25.5285333 L63.529503,48.937503 C63.529503,49.3714424 63.3195636,49.7782303 62.9651394,50.0298667 L46.9132606,61.3995636 C46.6819879,61.5629576 46.4109576,61.6453818 46.1399273,61.6453818" id="Fill-100" fill="#1A1A1A"></path>
                <path d="M46.1399273,61.6453818 C45.401503,61.6453818 44.8022303,61.0470788 44.8022303,60.3076848 L44.8022303,36.2296242 C44.8022303,35.4907152 45.401503,34.8914424 46.1399273,34.8914424 C46.8783515,34.8914424 47.4776242,35.4907152 47.4776242,36.2296242 L47.4776242,60.3076848 C47.4776242,61.0470788 46.8783515,61.6453818 46.1399273,61.6453818" id="Fill-101" fill="#1A1A1A"></path>
                <path d="M46.1399273,61.6453818 C45.8810182,61.6453818 45.6225939,61.5712 45.3981091,61.420897 L13.2938667,40.0182303 C12.8032,39.6914424 12.5845333,39.081503 12.7556848,38.5171394 C12.9263515,37.9527758 13.4465939,37.5673212 14.0356848,37.5673212 L20.7241697,37.5673212 C21.4630788,37.5673212 22.0618667,38.1656242 22.0618667,38.9050182 C22.0618667,39.6444121 21.4630788,40.2422303 20.7241697,40.2422303 L18.4536242,40.2422303 L46.1171394,58.6853818 L77.4708364,36.4754424 C77.9290182,36.1539879 78.5379879,36.1462303 78.9990788,36.4633212 C79.4606545,36.7784727 79.6773818,37.3496242 79.5416242,37.8912 L78.2039273,43.2419879 C78.0250182,43.9600485 77.2987152,44.3954424 76.5816242,44.2155636 C75.8650182,44.0366545 75.4296242,43.3103515 75.6085333,42.5942303 L76.0701091,40.7459879 L46.9132606,61.3995636 C46.6819879,61.5629576 46.4109576,61.6453818 46.1399273,61.6453818" id="Fill-102" fill="#1A1A1A"></path>
                <path d="M39.4521697,66.9962182 C39.0594424,66.9962182 38.6710788,66.8245818 38.4073212,66.4944 C37.9452606,65.9164606 38.0388364,65.0757333 38.6162909,64.6131879 L45.3042909,59.2628848 C45.7930182,58.8735515 46.4873212,58.872097 46.9760485,59.2643394 L49.6480485,61.4025212 C50.2245333,61.8636121 50.3181091,62.7043394 49.8560485,63.2822788 C49.3944727,63.8592485 48.5522909,63.9537939 47.9758061,63.4902788 L46.1396848,62.0197333 L40.2870788,66.7033697 C40.0407758,66.900703 39.745503,66.9962182 39.4521697,66.9962182" id="Fill-103" fill="#1A1A1A"></path>
                <path d="M46.1399273,26.8659879 C45.401503,26.8659879 44.8022303,26.2676848 44.8022303,25.5282909 L44.8022303,4.12562424 C44.8022303,3.3862303 45.401503,2.78792727 46.1399273,2.78792727 C46.8783515,2.78792727 47.4776242,3.3862303 47.4776242,4.12562424 L47.4776242,25.5282909 C47.4776242,26.2676848 46.8783515,26.8659879 46.1399273,26.8659879" id="Fill-104" fill="#1A1A1A"></path>
                <path d="M50.1529212,6.80067879 C49.8106182,6.80067879 49.4683152,6.67025455 49.2069818,6.40892121 L46.1398303,3.3417697 L43.0726788,6.40892121 C42.5500121,6.93207273 41.7034667,6.93207273 41.1812848,6.40892121 C40.6586182,5.88625455 40.6586182,5.03970909 41.1812848,4.51752727 L45.1938909,0.504921212 C45.7165576,-0.0177454545 46.563103,-0.0177454545 47.0857697,0.504921212 L51.0988606,4.51752727 C51.6210424,5.03970909 51.6210424,5.88625455 51.0988606,6.40892121 C50.8375273,6.67025455 50.4952242,6.80067879 50.1529212,6.80067879" id="Fill-105" fill="#1A1A1A"></path>
                <path d="M78.2438303,38.9048242 L71.5558303,38.9048242 C70.8169212,38.9048242 70.2181333,38.3070061 70.2181333,37.5671273 C70.2181333,36.8282182 70.8169212,36.2289455 71.5558303,36.2289455 L78.2438303,36.2289455 C78.9827394,36.2289455 79.5815273,36.8282182 79.5815273,37.5671273 C79.5815273,38.3070061 78.9827394,38.9048242 78.2438303,38.9048242" id="Fill-106" fill="#1A1A1A"></path>
                <path d="M15.3721697,45.5932606 C14.7733818,45.5932606 14.2279273,45.1884121 14.0756848,44.5794424 L12.7379879,39.2291394 C12.5590788,38.5125333 12.9949576,37.7862303 13.7110788,37.6078061 C14.4272,37.4303515 15.1539879,37.8628364 15.3333818,38.580897 L16.6715636,43.9316848 C16.8504727,44.6478061 16.4145939,45.3741091 15.6979879,45.5530182 C15.588897,45.5806545 15.4798061,45.5932606 15.3721697,45.5932606" id="Fill-107" fill="#1A1A1A"></path>
            </g>
        </g>
    </g>
</svg>