<?xml version="1.0" encoding="UTF-8"?>
<svg width="80px" height="78px" viewBox="0 0 80 78" version="1.1" xmlns="http://www.w3.org/2000/svg" xmlns:xlink="http://www.w3.org/1999/xlink">
    <title>home</title>
    <g id="Typography" stroke="none" stroke-width="1" fill="none" fill-rule="evenodd">
        <g id="Education" transform="translate(-126.000000, -4647.000000)">
            <g id="home" transform="translate(126.000000, 4647.000000)">
                <path d="M7.1947871,41.2374194 L50.6559484,73.8645161 C58.3818839,79.6647742 69.3475613,78.1034839 75.1483355,70.3770323 L76.3116903,68.8276129 C82.1119484,61.100129 80.5501419,50.1344516 72.8242065,44.3347097 L29.3630452,11.708129 C21.6365935,5.90735484 10.6709161,7.46916129 4.87065806,15.1956129 L3.70730323,16.7450323 C-2.09347097,24.472 -0.531664516,35.4371613 7.1947871,41.2374194" id="Fill-7" fill="#FFE137"></path>
                <path d="M27.680929,9.98183226 C27.680929,7.27421935 25.4858323,5.07912258 22.7782194,5.07912258 C20.0711226,5.07912258 17.8760258,7.27421935 17.8760258,9.98183226 C17.8760258,12.6894452 20.0711226,14.8845419 22.7782194,14.8845419 C25.4858323,14.8845419 27.680929,12.6894452 27.680929,9.98183226" id="Fill-9" fill="#FFFFFF"></path>
                <path d="M22.7784774,20.8760258 L16.7867355,23.0551226 L12.9735742,26.8672516 L5.89228387,35.0380903 L3.71370323,39.9408 L5.89228387,42.664929 L9.70544516,42.1198968 L14.6076387,37.2171871 L18.4208,33.9490581 L17.8757677,41.0303484 L15.152671,53.0143484 L12.4290581,61.728671 L10.7949935,66.6313806 L11.3395097,70.4450581 C11.3395097,70.4450581 12.9735742,71.5335742 13.5186065,71.5335742 L16.7867355,71.5335742 C16.7867355,71.5335742 18.4208,65.5423484 18.9653161,65.5423484 C19.5103484,65.5423484 24.9575742,48.1121548 24.9575742,48.1121548 L26.5916387,38.8517677 L27.1361548,33.4035097 L34.2174452,38.3062194 L36.3960258,40.4858323 L39.1196387,41.0303484 L41.8432516,39.9408 L41.8432516,36.6721548 L41.2987355,34.4940903 L36.9410581,30.680929 L29.8597677,24.1441548 L27.1361548,21.9655742 L24.4125419,20.8760258 L22.7784774,20.8760258 Z" id="Fill-11" fill="#FFFFFF"></path>
                <polygon id="Fill-37" fill="#FFE137" points="64.2616774 29.1896774 71.1334194 29.1896774 71.1334194 12.6972903 64.2616774 12.6972903"></polygon>
                <polygon id="Fill-38" fill="#E2E2E2" points="50.5187097 64.9223226 78.0051613 64.9223226 78.0051613 40.1842581 50.5187097 40.1842581"></polygon>
                <path d="M23.0317419,5.8256 C20.7581935,5.8256 18.9089032,7.67489032 18.9089032,9.94843871 C18.9089032,12.2225032 20.7581935,14.0723097 23.0317419,14.0723097 C25.3052903,14.0723097 27.1545806,12.2225032 27.1545806,9.94843871 C27.1545806,9.22379355 26.9646452,8.5136 26.6064516,7.89372903 C26.6064516,7.89218065 26.6059355,7.89218065 26.6059355,7.89218065 C25.8709677,6.61734194 24.5011613,5.8256 23.0317419,5.8256 M23.0317419,16.8206968 C19.2428387,16.8206968 16.16,13.7373419 16.16,9.94843871 C16.16,6.15953548 19.2428387,3.07669677 23.0317419,3.07669677 C25.4802581,3.07669677 27.7615484,4.39540645 28.9863226,6.51669677 C29.5860645,7.55618065 29.9034839,8.74172903 29.9034839,9.94843871 C29.9034839,13.7373419 26.8206452,16.8206968 23.0317419,16.8206968" id="Fill-108" fill="#1A1A1A"></path>
                <path d="M78.0055226,73.1683613 L49.143071,73.1683613 C48.3843613,73.1683613 47.7691355,72.5541677 47.7691355,71.7939097 C47.7691355,71.0341677 48.3843613,70.4199742 49.143071,70.4199742 L78.0055226,70.4199742 C78.7647484,70.4199742 79.3794581,71.0341677 79.3794581,71.7939097 C79.3794581,72.5541677 78.7647484,73.1683613 78.0055226,73.1683613" id="Fill-109" fill="#1A1A1A"></path>
                <path d="M40.8981677,73.1683613 L3.79055484,73.1683613 C3.03184516,73.1683613 2.41661935,72.5541677 2.41661935,71.7939097 C2.41661935,71.0341677 3.03184516,70.4199742 3.79055484,70.4199742 L40.8981677,70.4199742 C41.6568774,70.4199742 42.2726194,71.0341677 42.2726194,71.7939097 C42.2726194,72.5541677 41.6568774,73.1683613 40.8981677,73.1683613" id="Fill-110" fill="#1A1A1A"></path>
                <path d="M13.410529,28.0433548 C13.0781419,28.0433548 12.7457548,27.924129 12.4814968,27.6810323 C11.9220129,27.1669677 11.8858839,26.2972903 12.3994323,25.7388387 L14.6544,23.2851613 C16.8242065,20.9233548 19.8394323,19.5690323 22.9258839,19.5690323 C25.8667871,19.5690323 28.6755613,20.7540645 30.8329806,22.9073548 L33.394529,25.4611613 C33.9318194,25.9963871 33.9333677,26.8676129 33.3971097,27.4049032 C32.8603355,27.9427097 31.9906581,27.9427097 31.4533677,27.4074839 L28.8923355,24.8526452 C27.2525935,23.2175484 25.1338839,22.3179355 22.9258839,22.3179355 C20.5723355,22.3179355 18.3540129,23.3218065 16.6781419,25.1458065 L14.4231742,27.5994839 C14.1522065,27.8941935 13.7826581,28.0433548 13.410529,28.0433548" id="Fill-111" fill="#1A1A1A"></path>
                <path d="M23.3470452,55.3019355 C23.2014968,55.3019355 23.0523355,55.2792258 22.9067871,55.2286452 C22.1873032,54.9865806 21.802271,54.2067097 22.0453677,53.4867097 L22.6249806,51.7736774 C24.562529,46.0508387 25.5447226,40.0580645 25.5447226,33.9589677 L25.5447226,32.908129 C25.5447226,32.3729032 25.8554323,31.8872258 26.3405935,31.6611613 C26.8267871,31.4350968 27.3986581,31.5140645 27.8069161,31.8588387 L37.3067871,39.8996129 C37.7563355,40.2815484 38.3091097,40.4534194 38.8634323,40.376 C39.4487226,40.2985806 39.9715613,39.964129 40.3374968,39.4325161 C41.0621419,38.3816774 40.9377548,36.8689032 40.0546581,35.9889032 L35.5901419,31.5341935 C35.0533677,30.9974194 35.0518194,30.1277419 35.5880774,29.5909677 C36.1227871,29.0516129 36.9929806,29.0516129 37.5318194,29.5883871 L41.9958194,34.0430968 C43.8187871,35.859871 44.0789161,38.8487742 42.6007226,40.9917419 C41.8007226,42.1525161 40.5713032,42.9225806 39.2273032,43.100129 C37.8951742,43.2818065 36.5821419,42.8864516 35.5307871,41.9992258 L28.2631742,35.8464516 C28.0809806,41.5940645 27.0621419,47.24 25.2288516,52.6536774 L24.6487226,54.3672258 C24.4551742,54.9411613 23.9199484,55.3019355 23.3470452,55.3019355" id="Fill-112" fill="#1A1A1A"></path>
                <path d="M21.0204387,62.1738839 C20.8743742,62.1738839 20.7262452,62.1506581 20.5796645,62.1005935 C19.8606968,61.858529 19.4751484,61.0771097 19.7187613,60.3586581 L22.045471,53.4874323 C22.2896,52.7674323 23.0699871,52.3829161 23.7879226,52.6260129 C24.5068903,52.8691097 24.8924387,53.6489806 24.6488258,54.3679484 L22.3221161,61.2386581 C22.1285677,61.8125935 21.5933419,62.1738839 21.0204387,62.1738839" id="Fill-113" fill="#1A1A1A"></path>
                <path d="M14.5695484,73.1683613 C12.9236129,73.1683613 11.4015484,72.375071 10.3935484,70.9928774 C9.29574194,69.4868129 8.98658065,67.5100387 9.56619355,65.7061677 L14.6402581,49.9312 C16.0332903,45.5998452 16.883871,41.1177806 17.180129,36.5644903 L11.4392258,42.8122323 C10.4410323,43.8976516 9.10529032,44.4948129 7.67819355,44.4948129 L7.67767742,44.4948129 C6.25058065,44.4948129 4.91483871,43.8976516 3.91767742,42.8122323 C1.93006452,40.6486194 1.93006452,37.1312 3.91819355,34.9701677 L8.2763871,30.2259097 C8.79045161,29.6690065 9.65858065,29.6297806 10.2185806,30.1438452 C10.7765161,30.6579097 10.8136774,31.5255226 10.300129,32.0850065 L5.94193548,36.8302968 C4.91432258,37.9472 4.91432258,39.8341677 5.94193548,40.9521032 C6.41264516,41.4646194 7.02890323,41.7464258 7.67767742,41.7464258 L7.67819355,41.7464258 C8.32748387,41.7464258 8.94425806,41.4646194 9.41496774,40.9521032 L17.6611613,31.9776516 C18.0451613,31.5611355 18.6464516,31.4243613 19.1723871,31.6282323 C19.699871,31.8336516 20.0472258,32.3415226 20.0472258,32.9087484 C20.0472258,39.0047484 19.1083871,45.0145548 17.2575484,50.7714581 L12.1829677,66.5490065 C11.8712258,67.5182968 12.0322581,68.5758452 12.6144516,69.3732645 C12.8993548,69.7644903 13.532129,70.4199742 14.5695484,70.4199742 C15.6126452,70.4199742 16.5654194,69.6741677 16.9406452,68.5660387 L19.7189677,60.3595871 C19.9630968,59.6395871 20.7434839,59.2530065 21.4614194,59.4976516 C22.1803871,59.7397161 22.5659355,60.5216516 22.3223226,61.2395871 L19.544,69.4481032 C18.7899355,71.6736516 16.7909677,73.1683613 14.5695484,73.1683613" id="Fill-114" fill="#1A1A1A"></path>
                <path d="M25.5446194,64.3160258 L27.3211355,69.1495742 C27.9084903,70.7469935 29.3299097,71.7937032 30.9102968,71.7937032 C33.6235871,71.7937032 35.4924903,68.832671 34.5185548,66.0770581 L29.6674581,52.3506065" id="Fill-115" fill="#FFE137"></path>
                <path d="M30.9107613,73.1683613 C28.7378581,73.1683613 26.8225032,71.7768774 26.0312774,69.6241032 L24.2547613,64.7895226 C23.9936,64.0767484 24.3585032,63.287071 25.0712774,63.0259097 C25.7845677,62.7657806 26.573729,63.1281032 26.8348903,63.8419097 L28.6108903,68.6764903 C29.0005677,69.7355871 29.9032774,70.4199742 30.9107613,70.4199742 C31.6674065,70.4199742 32.3750194,70.0349419 32.8498581,69.3624258 C33.4232774,68.5515871 33.5626323,67.4955871 33.2230194,66.5340387 L28.3719226,52.8086194 C28.1190194,52.0927484 28.4942452,51.3082323 29.2101161,51.055329 C29.9270194,50.8034581 30.7115355,51.1766194 30.9639226,51.8930065 L35.8145032,65.6189419 C36.4508903,67.4181677 36.1819871,69.4119742 35.0945032,70.9500387 C34.0968258,72.3595871 32.5721806,73.1683613 30.9107613,73.1683613" id="Fill-116" fill="#1A1A1A"></path>
                <path d="M56.0161032,73.1683613 C55.2563613,73.1683613 54.6416516,72.5541677 54.6416516,71.7939097 L54.6416516,64.9216516 C54.6416516,64.1629419 55.2563613,63.5472 56.0161032,63.5472 C56.775329,63.5472 57.3900387,64.1629419 57.3900387,64.9216516 L57.3900387,71.7939097 C57.3900387,72.5541677 56.775329,73.1683613 56.0161032,73.1683613" id="Fill-117" fill="#1A1A1A"></path>
                <path d="M72.5080774,73.1683613 C71.7488516,73.1683613 71.1336258,72.5541677 71.1336258,71.7939097 L71.1336258,64.9216516 C71.1336258,64.1629419 71.7488516,63.5472 72.5080774,63.5472 C73.2667871,63.5472 73.882529,64.1629419 73.882529,64.9216516 L73.882529,71.7939097 C73.882529,72.5541677 73.2667871,73.1683613 72.5080774,73.1683613" id="Fill-118" fill="#1A1A1A"></path>
                <path d="M67.0105806,66.2968774 L61.5127742,66.2968774 C60.7535484,66.2968774 60.1383226,65.6821677 60.1383226,64.9224258 C60.1383226,64.1626839 60.7535484,63.5479742 61.5127742,63.5479742 L67.0105806,63.5479742 C67.7698065,63.5479742 68.3850323,64.1626839 68.3850323,64.9224258 C68.3850323,65.6821677 67.7698065,66.2968774 67.0105806,66.2968774" id="Fill-119" fill="#1A1A1A"></path>
                <path d="M78.0055226,66.2968774 L67.0104258,66.2968774 C66.2522323,66.2968774 65.6359742,65.6821677 65.6359742,64.9224258 C65.6359742,64.1626839 66.2522323,63.5479742 67.0104258,63.5479742 L76.631071,63.5479742 L76.631071,58.0501677 L51.8924903,58.0501677 L51.8924903,63.5479742 L61.5126194,63.5479742 C62.2718452,63.5479742 62.887071,64.1626839 62.887071,64.9224258 C62.887071,65.6821677 62.2718452,66.2968774 61.5126194,66.2968774 L50.5185548,66.2968774 C49.759329,66.2968774 49.1446194,65.6821677 49.1446194,64.9224258 L49.1446194,56.6757161 C49.1446194,55.9170065 49.759329,55.3017806 50.5185548,55.3017806 L78.0055226,55.3017806 C78.7647484,55.3017806 79.3794581,55.9170065 79.3794581,56.6757161 L79.3794581,64.9224258 C79.3794581,65.6821677 78.7647484,66.2968774 78.0055226,66.2968774" id="Fill-120" fill="#1A1A1A"></path>
                <path d="M51.8926452,55.3016774 L76.6307097,55.3016774 L76.6307097,49.8043871 L51.8926452,49.8043871 L51.8926452,55.3016774 Z M78.0051613,58.0505806 L50.5187097,58.0505806 C49.7594839,58.0505806 49.1442581,57.435871 49.1442581,56.676129 L49.1442581,48.4304516 C49.1442581,47.6707097 49.7594839,47.056 50.5187097,47.056 L78.0051613,47.056 C78.7643871,47.056 79.3796129,47.6707097 79.3796129,48.4304516 L79.3796129,56.676129 C79.3796129,57.435871 78.7643871,58.0505806 78.0051613,58.0505806 L78.0051613,58.0505806 Z" id="Fill-121" fill="#1A1A1A"></path>
                <path d="M78.0055226,49.8044387 L50.5185548,49.8044387 C49.759329,49.8044387 49.1446194,49.1902452 49.1446194,48.4305032 L49.1446194,40.1837935 C49.1446194,39.4245677 49.759329,38.8098581 50.5185548,38.8098581 L57.3902968,38.8098581 C58.1490065,38.8098581 58.7647484,39.4245677 58.7647484,40.1837935 C58.7647484,40.9440516 58.1490065,41.557729 57.3902968,41.557729 L51.8924903,41.557729 L51.8924903,47.0560516 L76.631071,47.0560516 L76.631071,41.557729 L62.8875871,41.557729 C62.1283613,41.557729 61.5136516,40.9440516 61.5136516,40.1837935 C61.5136516,39.4245677 62.1283613,38.8098581 62.8875871,38.8098581 L78.0055226,38.8098581 C78.7647484,38.8098581 79.3794581,39.4245677 79.3794581,40.1837935 L79.3794581,48.4305032 C79.3794581,49.1902452 78.7647484,49.8044387 78.0055226,49.8044387" id="Fill-122" fill="#1A1A1A"></path>
                <path d="M64.2615742,44.3074581 L64.2749935,44.3074581 L64.2615742,44.3074581 Z M65.6293161,44.3074581 L65.6432516,44.3074581 L65.6293161,44.3074581 Z M64.2615742,45.6886194 C63.5028645,45.6886194 62.8804129,45.0672 62.8804129,44.3074581 C62.8804129,43.5466839 63.5028645,42.9262968 64.2615742,42.9262968 C65.0213161,42.9262968 65.6432516,43.5466839 65.6432516,44.3074581 C65.6432516,45.0672 65.0213161,45.6886194 64.2615742,45.6886194 L64.2615742,45.6886194 Z" id="Fill-123" fill="#1A1A1A"></path>
                <path d="M64.2615742,52.5463742 L64.2749935,52.5463742 L64.2615742,52.5463742 Z M65.6293161,52.5463742 L65.6432516,52.5463742 L65.6293161,52.5463742 Z M64.2615742,53.9275355 C63.5028645,53.9275355 62.8804129,53.3066323 62.8804129,52.5463742 C62.8804129,51.7861161 63.5028645,51.1652129 64.2615742,51.1652129 C65.0213161,51.1652129 65.6432516,51.7861161 65.6432516,52.5463742 C65.6432516,53.3066323 65.0213161,53.9275355 64.2615742,53.9275355 L64.2615742,53.9275355 Z" id="Fill-124" fill="#1A1A1A"></path>
                <path d="M64.2615742,60.7928258 L64.2749935,60.7928258 L64.2615742,60.7928258 Z M65.6293161,60.7928258 L65.6432516,60.7928258 L65.6293161,60.7928258 Z M64.2615742,62.1739871 C63.5028645,62.1739871 62.8804129,61.5525677 62.8804129,60.7928258 C62.8804129,60.0320516 63.5028645,59.4116645 64.2615742,59.4116645 C65.0213161,59.4116645 65.6432516,60.0320516 65.6432516,60.7928258 C65.6432516,61.5525677 65.0213161,62.1739871 64.2615742,62.1739871 L64.2615742,62.1739871 Z" id="Fill-125" fill="#1A1A1A"></path>
                <path d="M72.5080774,29.8764903 L56.0156903,29.8764903 C55.2569806,29.8764903 54.6417548,29.2622968 54.6417548,28.5025548 L54.6417548,22.3172645 C54.6417548,21.5580387 55.2569806,20.9428129 56.0156903,20.9428129 C56.7749161,20.9428129 57.3901419,21.5580387 57.3901419,22.3172645 L57.3901419,27.1281032 L71.1336258,27.1281032 L71.1336258,13.3846194 L57.3901419,13.3846194 L57.3901419,16.8204903 C57.3901419,17.5802323 56.7749161,18.1944258 56.0156903,18.1944258 C55.2569806,18.1944258 54.6417548,17.5802323 54.6417548,16.8204903 L54.6417548,12.0101677 C54.6417548,11.2504258 55.2569806,10.6357161 56.0156903,10.6357161 L72.5080774,10.6357161 C73.2667871,10.6357161 73.882529,11.2504258 73.882529,12.0101677 L73.882529,28.5025548 C73.882529,29.2622968 73.2667871,29.8764903 72.5080774,29.8764903" id="Fill-126" fill="#1A1A1A"></path>
                <path d="M60.1386323,13.3845677 C59.9688258,13.3845677 59.7964387,13.3530839 59.6286968,13.2865032 C58.9236645,13.0046968 58.5804387,12.2046968 58.8622452,11.5001806 L60.7868903,6.68934194 C61.0686968,5.98430968 61.8666323,5.64056774 62.573729,5.92340645 C63.2782452,6.20572903 63.6209548,7.00572903 63.3391484,7.71024516 L61.4155355,12.5200516 C61.2003097,13.0583742 60.6841806,13.3845677 60.1386323,13.3845677" id="Fill-127" fill="#1A1A1A"></path>
                <path d="M62.0625032,8.57409032 C61.8926968,8.57409032 61.7203097,8.54312258 61.5525677,8.47705806 C60.8475355,8.19473548 60.5043097,7.39421935 60.7866323,6.69021935 L62.4372129,2.56686452 C62.7179871,1.8608 63.5143742,1.51447742 64.2235355,1.8004129 C64.9280516,2.08221935 65.2707613,2.88273548 64.9879226,3.58673548 L63.3388903,7.71009032 C63.1241806,8.24789677 62.6080516,8.57409032 62.0625032,8.57409032" id="Fill-128" fill="#1A1A1A"></path>
                <path d="M68.3856,13.3845677 C67.8400516,13.3845677 67.3239226,13.0583742 67.1086968,12.5200516 L63.877729,4.44211613 C63.6542452,4.47050323 63.4245677,4.44314839 63.2026323,4.35334194 C62.4970839,4.07153548 62.1543742,3.27153548 62.4361806,2.56701935 L62.9858581,1.19256774 C63.1943742,0.67076129 63.6996645,0.328567742 64.261729,0.328567742 C64.8237935,0.328567742 65.3290839,0.67076129 65.5381161,1.19256774 L69.661471,11.5001806 C69.9432774,12.2046968 69.6005677,13.0046968 68.8955355,13.2865032 C68.7277935,13.3530839 68.5554065,13.3845677 68.3856,13.3845677" id="Fill-129" fill="#1A1A1A"></path>
            </g>
        </g>
    </g>
</svg>