<?xml version="1.0" encoding="UTF-8"?>
<svg width="80px" height="72px" viewBox="0 0 80 72" version="1.1" xmlns="http://www.w3.org/2000/svg" xmlns:xlink="http://www.w3.org/1999/xlink">
    <title>building</title>
    <g id="Typography" stroke="none" stroke-width="1" fill="none" fill-rule="evenodd">
        <g id="Education" transform="translate(-572.000000, -4391.000000)">
            <g id="building" transform="translate(572.000000, 4391.000000)">
                <path d="M65.1212486,38.6213179 L26.1820578,67.8532254 C19.2599769,73.0504509 9.43523699,71.6511445 4.23801156,64.7286012 L3.19569942,63.3403931 C-2.00106358,56.4178497 -0.601757225,46.5931098 6.3203237,41.3958844 L45.2595145,12.1639769 C52.1820578,6.96721387 62.0067977,8.3660578 67.2035607,15.2886012 L68.2458728,16.6768092 C73.4430983,23.599815 72.0437919,33.4245549 65.1212486,38.6213179" id="Fill-27" fill="#FFE137"></path>
                <polygon id="Fill-29" fill="#FFFFFF" points="18.5684624 2.33609249 40.5300809 16.4891561 40.3122775 68.2149364 18.0806012 67.7326243"></polygon>
                <polygon id="Fill-40" fill="#FFE137" points="40.3122775 16.4983584 40.3122775 68.2148902 50.1629133 68.2148902 50.1629133 22.1469133"></polygon>
                <path d="M78.4840231,69.4463353 L60.0137341,69.4463353 C59.3335029,69.4463353 58.782289,68.8955838 58.782289,68.2148902 C58.782289,67.5341965 59.3335029,66.9834451 60.0137341,66.9834451 L78.4840231,66.9834451 C79.1637919,66.9834451 79.7154682,67.5341965 79.7154682,68.2148902 C79.7154682,68.8955838 79.1637919,69.4463353 78.4840231,69.4463353" id="Fill-41" fill="#1A1A1A"></path>
                <path d="M53.857711,69.4463353 L11.9913526,69.4463353 C11.3111214,69.4463353 10.7599075,68.8955838 10.7599075,68.2148902 C10.7599075,67.5341965 11.3111214,66.9834451 11.9913526,66.9834451 L53.857711,66.9834451 C54.5374798,66.9834451 55.0891561,67.5341965 55.0891561,68.2148902 C55.0891561,68.8955838 54.5374798,69.4463353 53.857711,69.4463353" id="Fill-42" fill="#1A1A1A"></path>
                <path d="M50.1630058,69.4463353 L18.1482081,69.4463353 C17.4679769,69.4463353 16.9163006,68.8955838 16.9163006,68.2148902 L16.9163006,43.5883006 C16.9163006,42.9076069 17.4679769,42.3563931 18.1482081,42.3563931 C18.8279769,42.3563931 19.3791908,42.9076069 19.3791908,43.5883006 L19.3791908,66.9834451 L48.9315607,66.9834451 L48.9315607,22.8211329 L32.2591908,12.1852948 C31.6853179,11.8195145 31.5169942,11.0583584 31.8827746,10.484948 C32.2494798,9.91246243 33.0115607,9.74506358 33.5831214,10.1099191 L50.8252023,21.108763 C51.1798844,21.3348902 51.3944509,21.7256416 51.3944509,22.1464509 L51.3944509,68.2148902 C51.3944509,68.8955838 50.8427746,69.4463353 50.1630058,69.4463353" id="Fill-45" fill="#1A1A1A"></path>
                <path d="M18.1480231,36.2000925 C17.4677919,36.2000925 16.916578,35.649341 16.916578,34.9686474 L16.916578,1.72240462 C16.916578,1.27246243 17.1621272,0.859052023 17.556578,0.64217341 C17.9514913,0.427144509 18.4319538,0.444254335 18.8102197,0.684716763 L28.4587746,6.84009249 C29.032185,7.2054104 29.2005087,7.96656647 28.8351908,8.54043931 C28.4694104,9.11523699 27.7077919,9.28356069 27.1348439,8.91546821 L19.3794682,3.96841618 L19.3794682,34.9686474 C19.3794682,35.649341 18.8277919,36.2000925 18.1480231,36.2000925" id="Fill-46" fill="#1A1A1A"></path>
                <path d="M26.7671676,30.0434682 L29.2300578,30.0434682 L29.2300578,27.580578 L26.7671676,27.580578 L26.7671676,30.0434682 Z M30.4615029,32.505896 L25.536185,32.505896 C24.8559538,32.505896 24.3047399,31.9551445 24.3047399,31.2744509 L24.3047399,26.3491329 C24.3047399,25.6684393 24.8559538,25.1176879 25.536185,25.1176879 L30.4615029,25.1176879 C31.1412717,25.1176879 31.692948,25.6684393 31.692948,26.3491329 L31.692948,31.2744509 C31.692948,31.9551445 31.1412717,32.505896 30.4615029,32.505896 L30.4615029,32.505896 Z" id="Fill-47" fill="#1A1A1A"></path>
                <path d="M39.0806936,30.0434682 L41.5435838,30.0434682 L41.5435838,27.580578 L39.0806936,27.580578 L39.0806936,30.0434682 Z M42.7745665,32.505896 L37.849711,32.505896 C37.1694798,32.505896 36.6182659,31.9551445 36.6182659,31.2744509 L36.6182659,26.3491329 C36.6182659,25.6684393 37.1694798,25.1176879 37.849711,25.1176879 L42.7745665,25.1176879 C43.4547977,25.1176879 44.006474,25.6684393 44.006474,26.3491329 L44.006474,31.2744509 C44.006474,31.9551445 43.4547977,32.505896 42.7745665,32.505896 L42.7745665,32.505896 Z" id="Fill-48" fill="#1A1A1A"></path>
                <path d="M26.7671676,42.3565318 L29.2300578,42.3565318 L29.2300578,39.894104 L26.7671676,39.894104 L26.7671676,42.3565318 Z M30.4615029,44.819422 L25.536185,44.819422 C24.8559538,44.819422 24.3047399,44.2686705 24.3047399,43.5879769 L24.3047399,38.662659 C24.3047399,37.9819653 24.8559538,37.4312139 25.536185,37.4312139 L30.4615029,37.4312139 C31.1412717,37.4312139 31.692948,37.9819653 31.692948,38.662659 L31.692948,43.5879769 C31.692948,44.2686705 31.1412717,44.819422 30.4615029,44.819422 L30.4615029,44.819422 Z" id="Fill-49" fill="#1A1A1A"></path>
                <path d="M39.0806936,42.3565318 L41.5435838,42.3565318 L41.5435838,39.894104 L39.0806936,39.894104 L39.0806936,42.3565318 Z M42.7745665,44.819422 L37.849711,44.819422 C37.1694798,44.819422 36.6182659,44.2686705 36.6182659,43.5879769 L36.6182659,38.662659 C36.6182659,37.9819653 37.1694798,37.4312139 37.849711,37.4312139 L42.7745665,37.4312139 C43.4547977,37.4312139 44.006474,37.9819653 44.006474,38.662659 L44.006474,43.5879769 C44.006474,44.2686705 43.4547977,44.819422 42.7745665,44.819422 L42.7745665,44.819422 Z" id="Fill-50" fill="#1A1A1A"></path>
                <path d="M26.7671676,54.6700578 L29.2300578,54.6700578 L29.2300578,52.2076301 L26.7671676,52.2076301 L26.7671676,54.6700578 Z M30.4615029,57.132948 L25.536185,57.132948 C24.8559538,57.132948 24.3047399,56.5821965 24.3047399,55.9015029 L24.3047399,50.976185 C24.3047399,50.2954913 24.8559538,49.7447399 25.536185,49.7447399 L30.4615029,49.7447399 C31.1412717,49.7447399 31.692948,50.2954913 31.692948,50.976185 L31.692948,55.9015029 C31.692948,56.5821965 31.1412717,57.132948 30.4615029,57.132948 L30.4615029,57.132948 Z" id="Fill-51" fill="#1A1A1A"></path>
                <path d="M39.0806936,54.6700578 L41.5435838,54.6700578 L41.5435838,52.2076301 L39.0806936,52.2076301 L39.0806936,54.6700578 Z M42.7745665,57.132948 L37.849711,57.132948 C37.1694798,57.132948 36.6182659,56.5821965 36.6182659,55.9015029 L36.6182659,50.976185 C36.6182659,50.2954913 37.1694798,49.7447399 37.849711,49.7447399 L42.7745665,49.7447399 C43.4547977,49.7447399 44.006474,50.2954913 44.006474,50.976185 L44.006474,55.9015029 C44.006474,56.5821965 43.4547977,57.132948 42.7745665,57.132948 L42.7745665,57.132948 Z" id="Fill-52" fill="#1A1A1A"></path>
                <path d="M63.7077919,68.2148439 C63.0275607,68.2148439 62.4763468,67.6640925 62.4763468,66.9833988 L62.4763468,57.132763 C62.4763468,56.4520694 63.0275607,55.9013179 63.7077919,55.9013179 C64.3880231,55.9013179 64.939237,56.4520694 64.939237,57.132763 L64.939237,66.9833988 C64.939237,67.6640925 64.3880231,68.2148439 63.7077919,68.2148439" id="Fill-53" fill="#1A1A1A"></path>
                <polyline id="Fill-54" fill="#E2E2E2" points="58.1667514 52.2075838 56.319815 57.1329017 71.0957688 57.1329017 63.7075607 37.4311676 60.9371561 44.8198382"></polyline>
                <path d="M71.0957688,58.3641156 L56.319815,58.3641156 C55.9156532,58.3641156 55.5373873,58.1657341 55.3075607,57.8341734 C55.0772717,57.5021503 55.0254798,57.0785665 55.1665202,56.6998382 L57.0134566,51.7745202 C57.2525318,51.1386821 57.9628208,50.8172948 58.5991214,51.0540578 C59.2358844,51.2935954 59.558659,52.0029595 59.3200462,52.6406474 L58.0964624,55.9016879 L69.3191214,55.9016879 L63.7075607,40.937526 L62.0904509,45.2524393 C61.8518382,45.8882775 61.1410867,46.2105896 60.5047861,45.9724393 C59.8680231,45.7333642 59.5452486,45.024 59.7843237,44.3863121 L62.5547283,36.9985665 C62.7350751,36.5185665 63.1942659,36.1999538 63.7075607,36.1999538 C64.2213179,36.1999538 64.6805087,36.5185665 64.8608555,36.9985665 L72.2490636,56.6998382 C72.390104,57.0785665 72.3383121,57.5021503 72.1075607,57.8341734 C71.8781965,58.1657341 71.4999306,58.3641156 71.0957688,58.3641156" id="Fill-55" fill="#1A1A1A"></path>
                <path d="M26.7673064,7.80527168 C26.0875376,7.80527168 25.5358613,7.25452023 25.5358613,6.57382659 L25.5358613,1.64850867 C25.5358613,0.967815029 26.0875376,0.417063584 26.7673064,0.417063584 C27.4475376,0.417063584 27.9987514,0.967815029 27.9987514,1.64850867 L27.9987514,6.57382659 C27.9987514,7.25452023 27.4475376,7.80527168 26.7673064,7.80527168" id="Fill-56" fill="#1A1A1A"></path>
                <polygon id="Fill-167" fill="#FFFFFF" points="39.0806936 30.0434682 41.5435838 30.0434682 41.5435838 27.580578 39.0806936 27.580578"></polygon>
                <polygon id="Fill-168" fill="#FFFFFF" points="39.0806936 42.3565318 41.5435838 42.3565318 41.5435838 39.894104 39.0806936 39.894104"></polygon>
                <polygon id="Fill-169" fill="#FFFFFF" points="39.0806936 54.6700578 41.5435838 54.6700578 41.5435838 52.2076301 39.0806936 52.2076301"></polygon>
            </g>
        </g>
    </g>
</svg>