<svg width="54" height="50" viewBox="0 0 54 50" fill="none" xmlns="http://www.w3.org/2000/svg">
<path d="M44.5 13.67C44.5 9.7728 43.2451 6.47472 41.0174 4.14751C38.788 1.81838 35.6204 0.5 31.872 0.5H13.128C9.37961 0.5 6.21202 1.81838 3.98255 4.14751C1.75491 6.47472 0.5 9.7728 0.5 13.67V31.33C0.5 35.2272 1.75491 38.5253 3.98255 40.8525C6.21202 43.1816 9.37961 44.5 13.128 44.5H31.872C35.6204 44.5 38.788 43.1816 41.0174 40.8525C43.2451 38.5253 44.5 35.2272 44.5 31.33V13.67ZM13.128 4.5H31.872C34.5266 4.5 36.6703 5.40493 38.1522 6.97473C39.6368 8.54745 40.5 10.8334 40.5 13.67V31.33C40.5 34.1666 39.6368 36.4525 38.1522 38.0253C36.6703 39.5951 34.5266 40.5 31.872 40.5H13.128C10.4745 40.5 8.33073 39.5951 6.84856 38.0252C5.36364 36.4525 4.5 34.1665 4.5 31.33V13.67C4.5 10.8335 5.36364 8.54752 6.84856 6.97475C8.33073 5.40491 10.4745 4.5 13.128 4.5ZM15.2422 18.905C15.2422 17.8009 14.3463 16.905 13.2422 16.905C12.1381 16.905 11.2422 17.8009 11.2422 18.905V32.625C11.2422 33.7291 12.1381 34.625 13.2422 34.625C14.3463 34.625 15.2422 33.7291 15.2422 32.625V18.905ZM24.5762 12.337C24.5762 11.2329 23.6803 10.337 22.5762 10.337C21.4721 10.337 20.5762 11.2329 20.5762 12.337V32.623C20.5762 33.7271 21.4721 34.623 22.5762 34.623C23.6803 34.623 24.5762 33.7271 24.5762 32.623V12.337ZM33.7568 26.155C33.7568 25.0509 32.8609 24.155 31.7568 24.155C30.6527 24.155 29.7568 25.0509 29.7568 26.155V32.623C29.7568 33.7271 30.6527 34.623 31.7568 34.623C32.8609 34.623 33.7568 33.7271 33.7568 32.623V26.155Z" fill="white" stroke="white"/>
<path d="M51.5738 29.4958C48.8981 27.2155 44.9186 27.6256 42.4625 30.1598L41.5006 31.151L40.5387 30.1598C38.0875 27.6256 34.1031 27.2155 31.4274 29.4958C28.361 32.1129 28.1998 36.8102 30.944 39.6471L40.3922 49.403C41.0026 50.0329 41.9938 50.0329 42.6041 49.403L52.0524 39.6471C54.8014 36.8102 54.6402 32.1129 51.5738 29.4958V29.4958Z" fill="#FF7EA5" fill-opacity="0.8"/>
</svg>
