<?xml version="1.0" encoding="UTF-8"?>
<svg width="80px" height="75px" viewBox="0 0 80 75" version="1.1" xmlns="http://www.w3.org/2000/svg" xmlns:xlink="http://www.w3.org/1999/xlink">
    <title>plan</title>
    <g id="Typography" stroke="none" stroke-width="1" fill="none" fill-rule="evenodd">
        <g id="Education" transform="translate(-126.000000, -4398.000000)">
            <g id="plan" transform="translate(126.000000, 4398.000000)">
                <path d="M7.1947871,38.4612129 L50.6559484,71.0877935 C58.3818839,76.8885677 69.3475613,75.3267613 75.1483355,67.6003097 L76.3116903,66.0508903 C82.1119484,58.3244387 80.5501419,47.3587613 72.8242065,41.5579871 L29.3630452,8.93140645 C21.6365935,3.13114839 10.6709161,4.69243871 4.87065806,12.4188903 L3.70730323,13.9683097 C-2.09347097,21.6952774 -0.531664516,32.6609548 7.1947871,38.4612129" id="Fill-23" fill="#FFE137"></path>
                <polygon id="Fill-25" fill="#FFFFFF" points="11.8843355 24.1083871 72.3473032 24.1083871 72.3297548 53.6810323 55.8373677 53.6810323 55.8373677 70.1729032 11.8843355 69.8642581"></polygon>
                <polygon id="Fill-31" fill="#FFE137" points="11.8585806 14.9171613 72.3298065 14.9171613 72.3298065 1.17367742 11.8585806 1.17367742"></polygon>
                <path d="M55.8376774,71.5473548 L11.8588387,71.5473548 C11.0990968,71.5473548 10.483871,70.9326452 10.483871,70.1729032 L10.483871,53.6810323 C10.483871,52.9212903 11.0990968,52.3065806 11.8588387,52.3065806 C12.6180645,52.3065806 13.2332903,52.9212903 13.2332903,53.6810323 L13.2332903,68.7984516 L55.8376774,68.7984516 C56.5969032,68.7984516 57.2116129,69.4131613 57.2116129,70.1729032 C57.2116129,70.9326452 56.5969032,71.5473548 55.8376774,71.5473548" id="Fill-130" fill="#1A1A1A"></path>
                <path d="M72.3296516,55.0554323 C71.5704258,55.0554323 70.9552,54.4407226 70.9552,53.6809806 L70.9552,24.8195613 L13.2328774,24.8195613 L13.2328774,41.3119484 C13.2328774,42.0716903 12.6176516,42.6864 11.8584258,42.6864 C11.0997161,42.6864 10.4844903,42.0716903 10.4844903,41.3119484 L10.4844903,23.4456258 C10.4844903,22.6858839 11.0997161,22.0711742 11.8584258,22.0711742 L72.3296516,22.0711742 C73.0888774,22.0711742 73.7041032,22.6858839 73.7041032,23.4456258 L73.7041032,53.6809806 C73.7041032,54.4407226 73.0888774,55.0554323 72.3296516,55.0554323" id="Fill-131" fill="#1A1A1A"></path>
                <path d="M72.3296516,16.5738323 L61.335071,16.5738323 C60.5758452,16.5738323 59.9606194,15.9591226 59.9606194,15.1993806 C59.9606194,14.4401548 60.5758452,13.824929 61.335071,13.824929 L70.9552,13.824929 L70.9552,2.83034839 L13.2328774,2.83034839 L13.2328774,5.57925161 C13.2328774,6.33847742 12.6176516,6.95370323 11.8584258,6.95370323 C11.0997161,6.95370323 10.4844903,6.33847742 10.4844903,5.57925161 L10.4844903,1.45589677 C10.4844903,0.696670968 11.0997161,0.0819612903 11.8584258,0.0819612903 L72.3296516,0.0819612903 C73.0888774,0.0819612903 73.7041032,0.696670968 73.7041032,1.45589677 L73.7041032,15.1993806 C73.7041032,15.9591226 73.0888774,16.5738323 72.3296516,16.5738323" id="Fill-132" fill="#1A1A1A"></path>
                <path d="M46.2172387,16.5738323 L11.858529,16.5738323 C11.0993032,16.5738323 10.4845935,15.9591226 10.4845935,15.1993806 L10.4845935,11.0765419 C10.4845935,10.3168 11.0993032,9.70209032 11.858529,9.70209032 C12.6177548,9.70209032 13.2329806,10.3168 13.2329806,11.0765419 L13.2329806,13.824929 L46.2172387,13.824929 C46.9759484,13.824929 47.5916903,14.4401548 47.5916903,15.1993806 C47.5916903,15.9591226 46.9759484,16.5738323 46.2172387,16.5738323" id="Fill-133" fill="#1A1A1A"></path>
                <polyline id="Fill-134" fill="#E2E2E2" points="61.3346581 64.6759226 55.8378839 70.1732129 55.8378839 53.6813419 72.3297548 53.6813419 66.8319484 59.1786323"></polyline>
                <path d="M55.8376774,71.5473548 C55.660129,71.5473548 55.4820645,71.5138065 55.3112258,71.4425806 C54.7976774,71.2304516 54.4632258,70.7287742 54.4632258,70.1729032 L54.4632258,53.6810323 C54.4632258,52.9212903 55.0784516,52.3065806 55.8376774,52.3065806 L72.3295484,52.3065806 C72.8849032,52.3065806 73.3865806,52.6405161 73.5992258,53.1545806 C73.811871,53.6686452 73.6947097,54.2590968 73.3014194,54.6523871 L67.804129,60.1496774 C67.2673548,60.6869677 66.3976774,60.6869677 65.8609032,60.1496774 C65.3236129,59.6129032 65.3236129,58.7432258 65.8609032,58.2064516 L69.0113548,55.0549677 L57.2116129,55.0549677 L57.2116129,66.8552258 L60.3636129,63.7037419 C60.9003871,63.1669677 61.7695484,63.1669677 62.3063226,63.7037419 C62.8430968,64.2405161 62.8430968,65.1101935 62.3063226,65.6469677 L56.8095484,71.1447742 C56.5458065,71.4074839 56.1948387,71.5473548 55.8376774,71.5473548" id="Fill-135" fill="#1A1A1A"></path>
                <path d="M17.3560774,6.95365161 C16.5968516,6.95365161 15.9816258,6.33894194 15.9816258,5.5792 L15.9816258,1.45636129 C15.9816258,0.696619355 16.5968516,0.0819096774 17.3560774,0.0819096774 C18.1147871,0.0819096774 18.730529,0.696619355 18.730529,1.45636129 L18.730529,5.5792 C18.730529,6.33894194 18.1147871,6.95365161 17.3560774,6.95365161" id="Fill-136" fill="#1A1A1A"></path>
                <path d="M25.6020645,9.70214194 C24.8428387,9.70214194 24.2276129,9.08743226 24.2276129,8.32769032 L24.2276129,1.45594839 C24.2276129,0.696722581 24.8428387,0.0820129032 25.6020645,0.0820129032 C26.3612903,0.0820129032 26.9765161,0.696722581 26.9765161,1.45594839 L26.9765161,8.32769032 C26.9765161,9.08743226 26.3612903,9.70214194 25.6020645,9.70214194" id="Fill-137" fill="#1A1A1A"></path>
                <path d="M33.8480516,6.95365161 C33.0893419,6.95365161 32.4736,6.33894194 32.4736,5.5792 L32.4736,1.45636129 C32.4736,0.696619355 33.0893419,0.0819096774 33.8480516,0.0819096774 C34.6072774,0.0819096774 35.2225032,0.696619355 35.2225032,1.45636129 L35.2225032,5.5792 C35.2225032,6.33894194 34.6072774,6.95365161 33.8480516,6.95365161" id="Fill-138" fill="#1A1A1A"></path>
                <path d="M42.0942452,9.70214194 C41.3350194,9.70214194 40.7197935,9.08743226 40.7197935,8.32769032 L40.7197935,1.45594839 C40.7197935,0.696722581 41.3350194,0.0820129032 42.0942452,0.0820129032 C42.8529548,0.0820129032 43.4686968,0.696722581 43.4686968,1.45594839 L43.4686968,8.32769032 C43.4686968,9.08743226 42.8529548,9.70214194 42.0942452,9.70214194" id="Fill-139" fill="#1A1A1A"></path>
                <path d="M50.3402323,6.95365161 C49.5810065,6.95365161 48.9657806,6.33894194 48.9657806,5.5792 L48.9657806,1.45636129 C48.9657806,0.696619355 49.5810065,0.0819096774 50.3402323,0.0819096774 C51.0989419,0.0819096774 51.7146839,0.696619355 51.7146839,1.45636129 L51.7146839,5.5792 C51.7146839,6.33894194 51.0989419,6.95365161 50.3402323,6.95365161" id="Fill-140" fill="#1A1A1A"></path>
                <path d="M58.5861677,9.70214194 C57.8274581,9.70214194 57.2117161,9.08743226 57.2117161,8.32769032 L57.2117161,1.45594839 C57.2117161,0.696722581 57.8274581,0.0820129032 58.5861677,0.0820129032 C59.3453935,0.0820129032 59.9606194,0.696722581 59.9606194,1.45594839 L59.9606194,8.32769032 C59.9606194,9.08743226 59.3453935,9.70214194 58.5861677,9.70214194" id="Fill-141" fill="#1A1A1A"></path>
                <path d="M66.8321548,6.95365161 C66.0734452,6.95365161 65.4577032,6.33894194 65.4577032,5.5792 L65.4577032,1.45636129 C65.4577032,0.696619355 66.0734452,0.0819096774 66.8321548,0.0819096774 C67.5913806,0.0819096774 68.2066065,0.696619355 68.2066065,1.45636129 L68.2066065,5.5792 C68.2066065,6.33894194 67.5913806,6.95365161 66.8321548,6.95365161" id="Fill-142" fill="#1A1A1A"></path>
                <path d="M17.3560774,27.5683097 C16.5968516,27.5683097 15.9816258,26.9536 15.9816258,26.1938581 L15.9816258,23.445471 C15.9816258,22.685729 16.5968516,22.0710194 17.3560774,22.0710194 C18.1147871,22.0710194 18.730529,22.685729 18.730529,23.445471 L18.730529,26.1938581 C18.730529,26.9536 18.1147871,27.5683097 17.3560774,27.5683097" id="Fill-143" fill="#1A1A1A"></path>
                <path d="M25.6020645,30.3170581 C24.8428387,30.3170581 24.2276129,29.7023484 24.2276129,28.9426065 L24.2276129,23.4453161 C24.2276129,22.6855742 24.8428387,22.0708645 25.6020645,22.0708645 C26.3612903,22.0708645 26.9765161,22.6855742 26.9765161,23.4453161 L26.9765161,28.9426065 C26.9765161,29.7023484 26.3612903,30.3170581 25.6020645,30.3170581" id="Fill-144" fill="#1A1A1A"></path>
                <path d="M33.8480516,27.5683097 C33.0893419,27.5683097 32.4736,26.9536 32.4736,26.1938581 L32.4736,23.445471 C32.4736,22.685729 33.0893419,22.0710194 33.8480516,22.0710194 C34.6072774,22.0710194 35.2225032,22.685729 35.2225032,23.445471 L35.2225032,26.1938581 C35.2225032,26.9536 34.6072774,27.5683097 33.8480516,27.5683097" id="Fill-145" fill="#1A1A1A"></path>
                <path d="M42.0942452,30.3170581 C41.3350194,30.3170581 40.7197935,29.7023484 40.7197935,28.9426065 L40.7197935,23.4453161 C40.7197935,22.6855742 41.3350194,22.0708645 42.0942452,22.0708645 C42.8529548,22.0708645 43.4686968,22.6855742 43.4686968,23.4453161 L43.4686968,28.9426065 C43.4686968,29.7023484 42.8529548,30.3170581 42.0942452,30.3170581" id="Fill-146" fill="#1A1A1A"></path>
                <path d="M50.3402323,27.5683097 C49.5810065,27.5683097 48.9657806,26.9536 48.9657806,26.1938581 L48.9657806,23.445471 C48.9657806,22.685729 49.5810065,22.0710194 50.3402323,22.0710194 C51.0989419,22.0710194 51.7146839,22.685729 51.7146839,23.445471 L51.7146839,26.1938581 C51.7146839,26.9536 51.0989419,27.5683097 50.3402323,27.5683097" id="Fill-147" fill="#1A1A1A"></path>
                <path d="M58.5861677,30.3170581 C57.8274581,30.3170581 57.2117161,29.7023484 57.2117161,28.9426065 L57.2117161,23.4453161 C57.2117161,22.6855742 57.8274581,22.0708645 58.5861677,22.0708645 C59.3453935,22.0708645 59.9606194,22.6855742 59.9606194,23.4453161 L59.9606194,28.9426065 C59.9606194,29.7023484 59.3453935,30.3170581 58.5861677,30.3170581" id="Fill-148" fill="#1A1A1A"></path>
                <path d="M66.8321548,27.5683097 C66.0734452,27.5683097 65.4577032,26.9536 65.4577032,26.1938581 L65.4577032,23.445471 C65.4577032,22.685729 66.0734452,22.0710194 66.8321548,22.0710194 C67.5913806,22.0710194 68.2066065,22.685729 68.2066065,23.445471 L68.2066065,26.1938581 C68.2066065,26.9536 67.5913806,27.5683097 66.8321548,27.5683097" id="Fill-149" fill="#1A1A1A"></path>
                <path d="M39.3454968,38.5632516 L24.2275613,38.5632516 C23.4688516,38.5632516 22.8531097,37.9485419 22.8531097,37.1888 C22.8531097,36.4295742 23.4688516,35.8148645 24.2275613,35.8148645 L39.3454968,35.8148645 C40.1042065,35.8148645 40.7199484,36.4295742 40.7199484,37.1888 C40.7199484,37.9485419 40.1042065,38.5632516 39.3454968,38.5632516" id="Fill-150" fill="#1A1A1A"></path>
                <path d="M42.0942452,38.5632516 L39.3453419,38.5632516 C38.5866323,38.5632516 37.9708903,37.9485419 37.9708903,37.1888 C37.9708903,36.4295742 38.5866323,35.8148645 39.3453419,35.8148645 L42.0942452,35.8148645 C42.8529548,35.8148645 43.4686968,36.4295742 43.4686968,37.1888 C43.4686968,37.9485419 42.8529548,38.5632516 42.0942452,38.5632516" id="Fill-151" fill="#1A1A1A"></path>
                <path d="M61.3346581,46.8094968 L47.5911742,46.8094968 C46.8319484,46.8094968 46.2167226,46.1947871 46.2167226,45.4350452 C46.2167226,44.6753032 46.8319484,44.0605935 47.5911742,44.0605935 L61.3346581,44.0605935 C62.066529,44.0605935 62.7571097,43.7751742 63.2773677,43.2538839 C63.7971097,42.7336258 64.0835613,42.0435613 64.0835613,41.3122065 C64.0835613,39.7968516 62.8510452,38.5633032 61.3346581,38.5633032 L40.7199484,38.5633032 C39.9607226,38.5633032 39.3454968,37.9485935 39.3454968,37.1888516 C39.3454968,36.4296258 39.9607226,35.8149161 40.7199484,35.8149161 L61.3346581,35.8149161 C64.3658839,35.8149161 66.8319484,38.2804645 66.8319484,41.3122065 C66.8319484,42.7774968 66.2595613,44.1586581 65.2200774,45.1976258 C64.1811097,46.2376258 62.8014968,46.8094968 61.3346581,46.8094968" id="Fill-152" fill="#1A1A1A"></path>
                <path d="M36.5967484,46.8094968 L22.8532645,46.8094968 C22.0945548,46.8094968 21.4788129,46.1947871 21.4788129,45.4350452 C21.4788129,44.6753032 22.0945548,44.0605935 22.8532645,44.0605935 L36.5967484,44.0605935 C37.3559742,44.0605935 37.9712,44.6753032 37.9712,45.4350452 C37.9712,46.1947871 37.3559742,46.8094968 36.5967484,46.8094968" id="Fill-153" fill="#1A1A1A"></path>
                <path d="M50.3402323,55.0554323 L44.8429419,55.0554323 C44.0837161,55.0554323 43.4684903,54.4407226 43.4684903,53.6809806 C43.4684903,52.9212387 44.0837161,52.306529 44.8429419,52.306529 L50.3402323,52.306529 C51.0989419,52.306529 51.7146839,52.9212387 51.7146839,53.6809806 C51.7146839,54.4407226 51.0989419,55.0554323 50.3402323,55.0554323" id="Fill-154" fill="#1A1A1A"></path>
                <path d="M28.3508129,55.0554323 L22.8535226,55.0554323 C19.8222968,55.0554323 17.3562323,52.5898839 17.3562323,49.5581419 C17.3562323,48.0923355 17.9286194,46.7111742 18.9681032,45.6727226 C20.007071,44.6327226 21.3872,44.0608516 22.8535226,44.0608516 L35.2225548,44.0608516 C35.9812645,44.0608516 36.5970065,44.6755613 36.5970065,45.4347871 C36.5970065,46.1950452 35.9812645,46.8092387 35.2225548,46.8092387 L22.8535226,46.8092387 C22.1211355,46.8092387 21.4315871,47.0951742 20.911329,47.6159484 C20.391071,48.1367226 20.1046194,48.8267871 20.1046194,49.5581419 C20.1046194,51.0734968 21.3376516,52.306529 22.8535226,52.306529 L28.3508129,52.306529 C29.1095226,52.306529 29.7252645,52.9212387 29.7252645,53.6809806 C29.7252645,54.4407226 29.1095226,55.0554323 28.3508129,55.0554323" id="Fill-155" fill="#1A1A1A"></path>
                <path d="M61.3346581,46.8094968 L48.9656258,46.8094968 C48.2064,46.8094968 47.5911742,46.1947871 47.5911742,45.4350452 C47.5911742,44.6753032 48.2064,44.0605935 48.9656258,44.0605935 L61.3346581,44.0605935 C62.0944,44.0605935 62.7091097,44.6753032 62.7091097,45.4350452 C62.7091097,46.1947871 62.0944,46.8094968 61.3346581,46.8094968" id="Fill-156" fill="#1A1A1A"></path>
                <path d="M44.8427355,63.3014194 L24.2280258,63.3014194 C23.4688,63.3014194 22.8535742,62.6867097 22.8535742,61.9269677 C22.8535742,61.1677419 23.4688,60.5525161 24.2280258,60.5525161 L44.8427355,60.5525161 C45.6019613,60.5525161 46.2171871,61.1677419 46.2171871,61.9269677 C46.2171871,62.6867097 45.6019613,63.3014194 44.8427355,63.3014194" id="Fill-157" fill="#1A1A1A"></path>
                <path d="M55.8376774,63.3014194 L44.8430968,63.3014194 C44.0849032,63.3014194 43.4691613,62.6867097 43.4691613,61.9269677 C43.4691613,61.1677419 44.0849032,60.5525161 44.8430968,60.5525161 L55.8376774,60.5525161 C56.5969032,60.5525161 57.2116129,61.1677419 57.2116129,61.9269677 C57.2116129,62.6867097 56.5969032,63.3014194 55.8376774,63.3014194" id="Fill-158" fill="#1A1A1A"></path>
                <path d="M61.3346581,55.0554323 L55.8378839,55.0554323 C55.0786581,55.0554323 54.4634323,54.4407226 54.4634323,53.6809806 C54.4634323,52.9212387 55.0786581,52.306529 55.8378839,52.306529 L61.3346581,52.306529 C62.0944,52.306529 62.7091097,52.9212387 62.7091097,53.6809806 C62.7091097,54.4407226 62.0944,55.0554323 61.3346581,55.0554323" id="Fill-159" fill="#1A1A1A"></path>
                <path d="M50.3402323,55.0554323 L46.2173935,55.0554323 C45.4581677,55.0554323 44.8429419,54.4407226 44.8429419,53.6809806 C44.8429419,52.9212387 45.4581677,52.306529 46.2173935,52.306529 L50.3402323,52.306529 C51.0989419,52.306529 51.7146839,52.9212387 51.7146839,53.6809806 C51.7146839,54.4407226 51.0989419,55.0554323 50.3402323,55.0554323" id="Fill-160" fill="#1A1A1A"></path>
                <path d="M44.8427355,55.0554323 L28.3508645,55.0554323 C27.5916387,55.0554323 26.9764129,54.4407226 26.9764129,53.6809806 C26.9764129,52.9212387 27.5916387,52.306529 28.3508645,52.306529 L44.8427355,52.306529 C45.6019613,52.306529 46.2171871,52.9212387 46.2171871,53.6809806 C46.2171871,54.4407226 45.6019613,55.0554323 44.8427355,55.0554323" id="Fill-161" fill="#1A1A1A"></path>
                <path d="M26.9763097,55.0554323 L22.853471,55.0554323 C22.0947613,55.0554323 21.4790194,54.4407226 21.4790194,53.6809806 C21.4790194,52.9212387 22.0947613,52.306529 22.853471,52.306529 L26.9763097,52.306529 C27.7355355,52.306529 28.3507613,52.9212387 28.3507613,53.6809806 C28.3507613,54.4407226 27.7355355,55.0554323 26.9763097,55.0554323" id="Fill-162" fill="#1A1A1A"></path>
                <path d="M24.2278194,37.1890065 C24.2278194,35.671071 22.9968516,34.4401032 21.4789161,34.4401032 C19.9609806,34.4401032 18.730529,35.671071 18.730529,37.1890065 C18.730529,38.7069419 19.9609806,39.9379097 21.4789161,39.9379097 C22.9968516,39.9379097 24.2278194,38.7069419 24.2278194,37.1890065" id="Fill-163" fill="#FFE137"></path>
                <path d="M21.479071,35.8147613 C20.7213935,35.8147613 20.1046194,36.4305032 20.1046194,37.1892129 C20.1046194,37.9474065 20.7213935,38.5631484 21.479071,38.5631484 C22.2367484,38.5631484 22.8535226,37.9474065 22.8535226,37.1892129 C22.8535226,36.4305032 22.2367484,35.8147613 21.479071,35.8147613 M21.479071,41.3120516 C19.2055226,41.3120516 17.3562323,39.4622452 17.3562323,37.1892129 C17.3562323,34.9151484 19.2055226,33.0658581 21.479071,33.0658581 C23.7526194,33.0658581 25.6019097,34.9151484 25.6019097,37.1892129 C25.6019097,39.4622452 23.7526194,41.3120516 21.479071,41.3120516" id="Fill-164" fill="#1A1A1A"></path>
                <path d="M24.2278194,61.9271742 C24.2278194,60.4092387 22.9968516,59.178271 21.4789161,59.178271 C19.9609806,59.178271 18.730529,60.4092387 18.730529,61.9271742 C18.730529,63.4451097 19.9609806,64.6760774 21.4789161,64.6760774 C22.9968516,64.6760774 24.2278194,63.4451097 24.2278194,61.9271742" id="Fill-165" fill="#FFE137"></path>
                <path d="M21.479071,60.552671 C20.7213935,60.552671 20.1046194,61.168929 20.1046194,61.9271226 C20.1046194,62.6853161 20.7213935,63.3015742 21.479071,63.3015742 C22.2367484,63.3015742 22.8535226,62.6853161 22.8535226,61.9271226 C22.8535226,61.168929 22.2367484,60.552671 21.479071,60.552671 M21.479071,66.0499613 C19.2055226,66.0499613 17.3562323,64.200671 17.3562323,61.9271226 C17.3562323,59.6535742 19.2055226,57.8042839 21.479071,57.8042839 C23.7526194,57.8042839 25.6019097,59.6535742 25.6019097,61.9271226 C25.6019097,64.200671 23.7526194,66.0499613 21.479071,66.0499613" id="Fill-166" fill="#1A1A1A"></path>
            </g>
        </g>
    </g>
</svg>