<?xml version="1.0" encoding="UTF-8"?>
<svg width="63px" height="64px" viewBox="0 0 63 64" version="1.1" xmlns="http://www.w3.org/2000/svg" xmlns:xlink="http://www.w3.org/1999/xlink">
    <title>icon-2</title>
    <g id="Typography" stroke="none" stroke-width="1" fill="none" fill-rule="evenodd">
        <g id="Education" transform="translate(-528.000000, -1302.000000)">
            <g id="Group-10" transform="translate(514.000000, 1291.000000)">
                <g id="icon-2" transform="translate(16.000000, 14.000000)">
                    <path d="M29,49.0833333 C40.4138848,49.0833333 49.6666667,39.8305515 49.6666667,28.4166667 C49.6666667,17.0027818 40.4138848,7.75 29,7.75 C17.5861152,7.75 8.33333333,17.0027818 8.33333333,28.4166667 C8.33333333,39.8305515 17.5861152,49.0833333 29,49.0833333 Z" id="Oval" stroke="#FFFFFF" stroke-width="4" stroke-linecap="round" stroke-dasharray="188,40" transform="translate(29.000000, 28.416667) scale(-1, 1) rotate(-150.000000) translate(-29.000000, -28.416667) "></path>
                    <path d="M29,36.1666667 C33.2802068,36.1666667 36.75,32.6968735 36.75,28.4166667 C36.75,24.1364599 33.2802068,20.6666667 29,20.6666667 C24.7197932,20.6666667 21.25,24.1364599 21.25,28.4166667 C21.25,32.6968735 24.7197932,36.1666667 29,36.1666667 Z" id="Oval-Copy" stroke="#FFFFFF" stroke-width="4" stroke-linecap="round" stroke-dasharray="208,40"></path>
                    <path d="M45.7916667,51.6666667 C49.917827,51.6666667 53.7358891,49.7917171 57.2458529,46.0418181 L57.2458505,46.0418157 C59.0453312,44.1193255 59.045331,41.1306687 57.2458499,39.2081787 C53.7358869,35.4582818 49.9178258,33.5833333 45.7916667,33.5833333 C41.6655063,33.5833333 37.8474442,35.4582829 34.3374804,39.2081819 L34.3374829,39.2081843 C32.5380021,41.1306745 32.5380023,44.1193313 34.3374834,46.0418213 C37.8474464,49.7917182 41.6655075,51.6666667 45.7916667,51.6666667 Z" id="Oval" fill-opacity="0.580938593" fill="#FF57B5"></path>
                    <line x1="19.9583333" y1="58.125" x2="38.0416667" y2="58.125" id="Path-3" stroke="#FFFFFF" stroke-width="4" stroke-linecap="round" stroke-linejoin="round"></line>
                </g>
            </g>
        </g>
    </g>
</svg>