<?xml version="1.0" encoding="UTF-8"?>
<svg width="80px" height="70px" viewBox="0 0 80 70" version="1.1" xmlns="http://www.w3.org/2000/svg" xmlns:xlink="http://www.w3.org/1999/xlink">
    <title>living-room</title>
    <g id="Typography" stroke="none" stroke-width="1" fill="none" fill-rule="evenodd">
        <g id="Education" transform="translate(-572.000000, -4644.000000)">
            <g id="living-room" transform="translate(572.000000, 4644.000000)">
                <path d="M71.8919236,33.894828 L28.9844076,66.1057834 C21.3568917,71.8326624 10.5309045,70.2907516 4.80402548,62.6627261 L3.65549045,61.1330446 C-2.07087898,53.5050191 -0.528968153,42.6790318 7.09854777,36.9521529 L50.0060637,4.74119745 C57.6340892,-0.985171975 68.4600764,0.556229299 74.1864459,8.18425478 L75.3349809,9.71393631 C81.0618599,17.3424713 79.519949,28.1684586 71.8919236,33.894828" id="Fill-19" fill="#FFE137"></path>
                <polygon id="Fill-21" fill="#FFFFFF" points="10.6528408 27.253707 53.6750064 27.253707 54.2120764 51.4534522 9.57768153 51.4534522"></polygon>
                <path d="M78.3459363,67.8612484 L60.7077197,67.8612484 C59.9581656,67.8612484 59.3507771,67.2543694 59.3507771,66.5043057 C59.3507771,65.754242 59.9581656,65.1473631 60.7077197,65.1473631 L78.3459363,65.1473631 C79.096,65.1473631 79.702879,65.754242 79.702879,66.5043057 C79.702879,67.2543694 79.096,67.8612484 78.3459363,67.8612484" id="Fill-43" fill="#1A1A1A"></path>
                <path d="M53.9231592,67.8612484 L5.07729936,67.8612484 C4.32774522,67.8612484 3.72035669,67.2543694 3.72035669,66.5043057 C3.72035669,65.754242 4.32774522,65.1473631 5.07729936,65.1473631 L53.9231592,65.1473631 C54.6727134,65.1473631 55.2801019,65.754242 55.2801019,66.5043057 C55.2801019,67.2543694 54.6727134,67.8612484 53.9231592,67.8612484" id="Fill-44" fill="#1A1A1A"></path>
                <path d="M53.9231592,39.5849682 C53.1741146,39.5849682 52.5662166,38.9780892 52.5662166,38.2280255 L52.5662166,28.5128662 L11.8615032,28.5128662 L11.8615032,38.2280255 C11.8615032,38.9780892 11.2541146,39.5849682 10.5045605,39.5849682 C9.75500637,39.5849682 9.14761783,38.9780892 9.14761783,38.2280255 L9.14761783,27.1559236 C9.14761783,26.4063694 9.75500637,25.7994904 10.5045605,25.7994904 L53.9231592,25.7994904 C54.6727134,25.7994904 55.2801019,26.4063694 55.2801019,27.1559236 L55.2801019,38.2280255 C55.2801019,38.9780892 54.6727134,39.5849682 53.9231592,39.5849682" id="Fill-57" fill="#1A1A1A"></path>
                <path d="M18.6464713,67.8612484 L18.6230318,67.8612484 C17.8734777,67.848 17.2762803,67.2304204 17.2890191,66.4818854 L17.4021401,59.6976815 C17.4143694,58.9557707 18.0197197,58.3631592 18.7585732,58.3631592 L18.7815032,58.3631592 C19.5305478,58.3764076 20.1282548,58.9939873 20.1160255,59.7425223 L20.0023949,66.5267261 C19.9901656,67.2686369 19.3848153,67.8612484 18.6464713,67.8612484" id="Fill-58" fill="#1A1A1A"></path>
                <path d="M45.6698089,67.8612484 L45.6463694,67.8612484 C44.8968153,67.848 44.3001274,67.2304204 44.3123567,66.4818854 L44.4259873,59.6976815 C44.437707,58.9557707 45.0430573,58.3631592 45.7819108,58.3631592 L45.8048408,58.3631592 C46.5538854,58.3764076 47.1515924,58.9939873 47.1393631,59.7425223 L47.0257325,66.5267261 C47.0135032,67.2686369 46.4081529,67.8612484 45.6698089,67.8612484" id="Fill-59" fill="#1A1A1A"></path>
                <path d="M67.3785987,67.8612484 L67.3745223,67.8612484 C66.6254777,67.8602293 66.0191083,67.250293 66.0216481,66.501758 L66.1352866,17.6558981 C66.1363057,16.9068535 66.7436943,16.3015032 67.4917197,16.3015032 L67.4952866,16.3015032 C68.2438217,16.3030318 68.8507006,16.9124586 68.8486675,17.6609936 L68.7350318,66.5068535 C68.7329936,67.2558981 68.1266242,67.8612484 67.3785987,67.8612484" id="Fill-60" fill="#1A1A1A"></path>
                <path d="M28.1433885,59.7203567 L5.07689172,59.7203567 L5.07689172,41.6337325 C5.07689172,39.6255796 6.89549045,38.0108025 9.1482293,38.0108025 C9.62211465,38.0108025 10.0842803,38.0785732 10.5046624,38.2278726 C11.0875924,38.4041783 11.6032611,38.6895287 12.0241529,39.0691465 C12.7568917,39.7203567 13.2185478,40.6294013 13.2185478,41.6337325 L13.2185478,51.5792102 L51.2098854,51.5792102 L51.2098854,41.6337325 C51.2098854,40.7787006 51.5492484,39.9781911 52.1046624,39.3677452 C52.566828,38.8520764 53.1905223,38.4454522 53.9232611,38.2278726 C54.3441529,38.0785732 54.8047898,38.0108025 55.2802038,38.0108025 C56.4063185,38.0108025 57.4238981,38.4179363 58.1561274,39.0691465 C58.8893758,39.7203567 59.3505223,40.6294013 59.3505223,41.6337325 L59.3505223,59.7203567 L37.6419873,59.7203567" id="Fill-61" fill="#E2E2E2"></path>
                <path d="M59.3506242,61.0770955 L37.6415796,61.0770955 C36.8920255,61.0770955 36.2841274,60.4702166 36.2841274,59.7201529 C36.2841274,58.9700892 36.8920255,58.3632102 37.6415796,58.3632102 L57.9936815,58.3632102 L57.9936815,41.6335287 C57.9936815,41.0572229 57.7312611,40.507414 57.2558471,40.0844841 C56.7361019,39.6223185 56.0349554,39.368051 55.2803057,39.368051 C54.9404331,39.368051 54.6367389,39.4139108 54.3783949,39.5066497 C53.8392866,39.6686879 53.4270573,39.9255032 53.1162293,40.2725096 C52.7585223,40.6648662 52.5664204,41.1443567 52.5664204,41.6335287 L52.5664204,51.5790064 C52.5664204,52.3295796 51.9590318,52.935949 51.2089682,52.935949 L13.2181401,52.935949 C12.4690955,52.935949 11.8611975,52.3295796 11.8611975,51.5790064 L11.8611975,41.6335287 C11.8611975,41.0572229 11.5992866,40.507414 11.1233631,40.0844841 C10.8431083,39.8302166 10.5057834,39.645758 10.1124076,39.5270318 C9.79087898,39.4139108 9.48769427,39.368051 9.14782166,39.368051 C7.65126115,39.368051 6.43393631,40.3841019 6.43393631,41.6335287 L6.43393631,58.3632102 L28.1434904,58.3632102 C28.8930446,58.3632102 29.4999236,58.9700892 29.4999236,59.7201529 C29.4999236,60.4702166 28.8930446,61.0770955 28.1434904,61.0770955 L5.07699363,61.0770955 C4.32794904,61.0770955 3.72056051,60.4702166 3.72056051,59.7201529 L3.72056051,41.6335287 C3.72056051,38.888051 6.15521019,36.6541656 9.14782166,36.6541656 C9.79801274,36.6541656 10.407949,36.7535287 10.9597962,36.949707 C11.6772484,37.165758 12.3631083,37.5458854 12.9338089,38.0625732 C13.9732994,38.9858854 14.5750828,40.2898344 14.5750828,41.6335287 L14.5750828,50.2225732 L49.852535,50.2225732 L49.852535,41.6335287 C49.852535,40.4676688 50.2963567,39.3384968 51.1024713,38.4534013 C51.739414,37.740535 52.5847643,37.2090701 53.5376306,36.9267771 C54.0201783,36.7535287 54.6296051,36.6541656 55.2803057,36.6541656 C56.7004331,36.6541656 58.0425987,37.152 59.0581401,38.055949 C60.1057834,38.9858854 60.7075669,40.2898344 60.7075669,41.6335287 L60.7075669,59.7201529 C60.7075669,60.4702166 60.0996688,61.0770955 59.3506242,61.0770955" id="Fill-62" fill="#1A1A1A"></path>
                <path d="M32.2138599,52.9361529 C31.4643057,52.9361529 30.8569172,52.3292739 30.8569172,51.5792102 L30.8569172,43.4380637 C30.8569172,42.6885096 31.4643057,42.0816306 32.2138599,42.0816306 C32.963414,42.0816306 33.5708025,42.6885096 33.5708025,43.4380637 L33.5708025,51.5792102 C33.5708025,52.3292739 32.963414,52.9361529 32.2138599,52.9361529" id="Fill-63" fill="#1A1A1A"></path>
                <path d="M32.2138599,35.2973248 C31.4643057,35.2973248 30.8569172,34.6904459 30.8569172,33.9403822 L30.8569172,27.1561783 C30.8569172,26.4061146 31.4643057,25.7992357 32.2138599,25.7992357 C32.963414,25.7992357 33.5708025,26.4061146 33.5708025,27.1561783 L33.5708025,33.9403822 C33.5708025,34.6904459 32.963414,35.2973248 32.2138599,35.2973248" id="Fill-64" fill="#1A1A1A"></path>
                <polyline id="Fill-65" fill="#FFE137" points="61.1594395 4.08988535 62.0638981 1.376 72.9189299 1.376 78.3461911 17.658293 67.4916688 17.658293 56.6366369 17.658293 58.4460637 12.232051"></polyline>
                <path d="M78.3459363,19.0152357 L56.6368917,19.0152357 C56.2007134,19.0152357 55.7910318,18.8058089 55.5362548,18.4521783 C55.2809682,18.0985478 55.2121783,17.6424968 55.3492484,17.2292484 L57.1586752,11.8030064 C57.3951083,11.0931975 58.1614777,10.7044076 58.8748535,10.9459363 C59.5861911,11.1813503 59.9698854,11.9502675 59.7329427,12.6616051 L58.5191847,16.3013503 L76.4641529,16.3013503 L71.9413503,2.73294268 L63.0424968,2.73294268 L62.4473376,4.51943949 C62.2103949,5.22975796 61.439949,5.61396178 60.7316688,5.37650955 C60.0193121,5.14058599 59.6351083,4.37217834 59.8725605,3.66084076 L60.7770191,0.947464968 C60.9619873,0.393579618 61.4796943,0.019566879 62.0646624,0.019566879 L72.9191847,0.019566879 C73.5031338,0.019566879 74.0213503,0.393579618 74.2058089,0.947464968 L79.6330701,17.2292484 C79.7716688,17.6424968 79.7013503,18.0985478 79.4465732,18.4521783 C79.1912866,18.8058089 78.7816051,19.0152357 78.3459363,19.0152357" id="Fill-66" fill="#1A1A1A"></path>
            </g>
        </g>
    </g>
</svg>