<?xml version="1.0" encoding="UTF-8"?>
<svg width="80px" height="82px" viewBox="0 0 80 82" version="1.1" xmlns="http://www.w3.org/2000/svg" xmlns:xlink="http://www.w3.org/1999/xlink">
    <title>kitchen</title>
    <g id="Typography" stroke="none" stroke-width="1" fill="none" fill-rule="evenodd">
        <g id="Education" transform="translate(-995.000000, -4639.000000)">
            <g id="kitchen" transform="translate(995.000000, 4639.000000)">
                <path d="M71.8919236,45.2980892 L28.9844076,77.5095541 C21.3568917,83.2359236 10.5309045,81.6945223 4.80402548,74.0664968 L3.65549045,72.5368153 C-2.07087898,64.9077707 -0.528968153,54.0817834 7.09854777,48.3559236 L50.0060637,16.1449682 C57.6340892,10.4180892 68.4600764,11.96 74.1864459,19.5880255 L75.3349809,21.117707 C81.0618599,28.746242 79.519949,39.5717197 71.8919236,45.2980892" id="Fill-1" fill="#FFE137"></path>
                <polygon id="Fill-3" fill="#FFFFFF" points="4.79898089 48.3290191 78.4122293 48.3198471 78.4122293 75.2090191 4.73732484 75.2090191"></polygon>
                <polygon id="Fill-5" fill="#FFFFFF" points="29.5158217 1.53961783 78.4121274 1.53401274 78.4121274 19.8183439 29.4750573 19.8183439"></polygon>
                <polygon id="Fill-34" fill="#FFE137" points="5.07719745 48.3286624 29.5001274 48.3286624 29.5001274 2.19617834 5.07719745 2.19617834"></polygon>
                <polygon id="Fill-35" fill="#E2E2E2" points="29.5001274 19.8349045 59.350828 19.8349045 59.350828 2.19617834 29.5001274 2.19617834"></polygon>
                <polygon id="Fill-36" fill="#E2E2E2" points="29.5001274 75.209172 59.350828 75.209172 59.350828 48.3205096 29.5001274 48.3205096"></polygon>
                <path d="M78.3459363,76.8222675 L49.8531975,76.8222675 C49.1036433,76.8222675 48.4967643,76.2158981 48.4967643,75.4653248 C48.4967643,74.7152611 49.1036433,74.1088917 49.8531975,74.1088917 L76.9895032,74.1088917 L76.9895032,49.6854522 L6.43408917,49.6854522 L6.43408917,74.1088917 L40.3551083,74.1088917 C41.1046624,74.1088917 41.712051,74.7152611 41.712051,75.4653248 C41.712051,76.2158981 41.1046624,76.8222675 40.3551083,76.8222675 L5.07663694,76.8222675 C4.32759236,76.8222675 3.72071338,76.2158981 3.72071338,75.4653248 L3.72071338,48.3290191 C3.72071338,47.5779363 4.32759236,46.9720764 5.07663694,46.9720764 L78.3459363,46.9720764 C79.096,46.9720764 79.702879,47.5779363 79.702879,48.3290191 L79.702879,75.4653248 C79.702879,76.2158981 79.096,76.8222675 78.3459363,76.8222675" id="Fill-67" fill="#1A1A1A"></path>
                <path d="M29.4999236,76.8222675 C28.750879,76.8222675 28.1429809,76.2158981 28.1429809,75.4653248 L28.1429809,67.3236688 C28.1429809,66.5746242 28.750879,65.9677452 29.4999236,65.9677452 C30.2499873,65.9677452 30.8568662,66.5746242 30.8568662,67.3236688 L30.8568662,75.4653248 C30.8568662,76.2158981 30.2499873,76.8222675 29.4999236,76.8222675" id="Fill-68" fill="#1A1A1A"></path>
                <path d="M29.4999236,60.5403822 C28.750879,60.5403822 28.1429809,59.9335032 28.1429809,59.1834395 L28.1429809,2.19643312 C28.1429809,1.44585987 28.750879,0.839490446 29.4999236,0.839490446 C30.2499873,0.839490446 30.8568662,1.44585987 30.8568662,2.19643312 L30.8568662,59.1834395 C30.8568662,59.9335032 30.2499873,60.5403822 29.4999236,60.5403822" id="Fill-69" fill="#1A1A1A"></path>
                <path d="M59.3506242,21.1922548 C58.6010701,21.1922548 57.9936815,20.5853758 57.9936815,19.8353121 L57.9936815,13.0505987 C57.9936815,12.3010446 58.6010701,11.6936561 59.3506242,11.6936561 C60.0996688,11.6936561 60.7075669,12.3010446 60.7075669,13.0505987 L60.7075669,19.8353121 C60.7075669,20.5853758 60.0996688,21.1922548 59.3506242,21.1922548" id="Fill-70" fill="#1A1A1A"></path>
                <path d="M59.3506242,8.98038217 C58.6010701,8.98038217 57.9936815,8.37401274 57.9936815,7.62343949 L57.9936815,2.1966879 C57.9936815,1.44611465 58.6010701,0.839235669 59.3506242,0.839235669 C60.0996688,0.839235669 60.7075669,1.44611465 60.7075669,2.1966879 L60.7075669,7.62343949 C60.7075669,8.37401274 60.0996688,8.98038217 59.3506242,8.98038217" id="Fill-71" fill="#1A1A1A"></path>
                <path d="M78.3459363,20.6001019 C77.5968917,20.6001019 76.9895032,19.9937325 76.9895032,19.2431592 L76.9895032,1.60494268 C76.9895032,0.854369427 77.5968917,0.248 78.3459363,0.248 C79.096,0.248 79.702879,0.854369427 79.702879,1.60494268 L79.702879,19.2431592 C79.702879,19.9937325 79.096,20.6001019 78.3459363,20.6001019" id="Fill-72" fill="#1A1A1A"></path>
                <path d="M59.3506242,76.8222675 C58.6010701,76.8222675 57.9936815,76.2158981 57.9936815,75.4653248 L57.9936815,48.3290191 C57.9936815,47.5779363 58.6010701,46.9720764 59.3506242,46.9720764 C60.0996688,46.9720764 60.7075669,47.5779363 60.7075669,48.3290191 L60.7075669,75.4653248 C60.7075669,76.2158981 60.0996688,76.8222675 59.3506242,76.8222675" id="Fill-73" fill="#1A1A1A"></path>
                <path d="M64.7770701,53.7559745 L64.0998726,53.7559745 L64.7780892,53.7575032 C64.7780892,53.7575032 64.7780892,53.7559745 64.7770701,53.7559745 M64.7780892,55.1129172 C64.0295541,55.1129172 63.4211465,54.5050191 63.4211465,53.7559745 C63.4211465,53.0074395 64.0295541,52.3995414 64.7780892,52.3995414 C65.5261146,52.3995414 66.1345223,53.0074395 66.1345223,53.7559745 C66.1345223,54.5050191 65.5261146,55.1129172 64.7780892,55.1129172" id="Fill-74" fill="#1A1A1A"></path>
                <path d="M68.8475414,53.7559745 L68.1703439,53.7559745 L68.8485605,53.7575032 C68.8485605,53.7575032 68.8485605,53.7559745 68.8475414,53.7559745 M68.8485605,55.1129172 C68.1000255,55.1129172 67.4916178,54.5050191 67.4916178,53.7559745 C67.4916178,53.0074395 68.1000255,52.3995414 68.8485605,52.3995414 C69.596586,52.3995414 70.2049936,53.0074395 70.2049936,53.7559745 C70.2049936,54.5050191 69.596586,55.1129172 68.8485605,55.1129172" id="Fill-75" fill="#1A1A1A"></path>
                <path d="M72.9184713,53.1643312 L72.2407643,53.1643312 L72.9189809,53.1658599 C72.9189809,53.1658599 72.9189809,53.1643312 72.9184713,53.1643312 M72.9189809,54.5212739 C72.1704459,54.5212739 71.5620382,53.9133758 71.5620382,53.1643312 C71.5620382,52.4152866 72.1704459,51.8073885 72.9189809,51.8073885 C73.6670064,51.8073885 74.275414,52.4152866 74.275414,53.1643312 C74.275414,53.9133758 73.6670064,54.5212739 72.9189809,54.5212739" id="Fill-76" fill="#1A1A1A"></path>
                <polyline id="Fill-77" fill="#FFE137" points="72.9189809 70.0383185 64.7778344 70.0383185 64.7778344 59.1832866 72.9189809 59.1832866 72.9189809 61.8966624"></polyline>
                <path d="M72.9189809,71.3948025 L64.7778344,71.3948025 C64.0287898,71.3948025 63.4208917,70.7884331 63.4208917,70.0383694 L63.4208917,59.1833376 C63.4208917,58.4332739 64.0287898,57.8263949 64.7778344,57.8263949 L72.9189809,57.8263949 C73.6680255,57.8263949 74.2759236,58.4332739 74.2759236,59.1833376 L74.2759236,61.8967134 C74.2759236,62.6472866 73.6680255,63.2531465 72.9189809,63.2531465 C72.1694268,63.2531465 71.5620382,62.6472866 71.5620382,61.8967134 L71.5620382,60.5402803 L66.1347771,60.5402803 L66.1347771,68.6814268 L72.9189809,68.6814268 C73.6680255,68.6814268 74.2759236,69.2883057 74.2759236,70.0383694 C74.2759236,70.7884331 73.6680255,71.3948025 72.9189809,71.3948025" id="Fill-78" fill="#1A1A1A"></path>
                <polygon id="Fill-79" fill="#E2E2E2" points="72.9189809 44.2585478 72.9189809 46.9719236 67.4917197 46.9719236 67.4917197 41.5446624 72.9189809 41.5446624"></polygon>
                <path d="M68.8484076,45.6147771 L71.562293,45.6147771 L71.562293,42.9019108 L68.8484076,42.9019108 L68.8484076,45.6147771 Z M72.9192357,48.3286624 L67.491465,48.3286624 C66.7419108,48.3286624 66.1350318,47.7217834 66.1350318,46.9717197 L66.1350318,41.5444586 C66.1350318,40.7943949 66.7419108,40.1875159 67.491465,40.1875159 L72.9192357,40.1875159 C73.6682803,40.1875159 74.2756688,40.7943949 74.2756688,41.5444586 L74.2756688,46.9717197 C74.2756688,47.7217834 73.6682803,48.3286624 72.9192357,48.3286624 L72.9192357,48.3286624 Z" id="Fill-80" fill="#1A1A1A"></path>
                <line x1="67.4915159" y1="41.5446115" x2="62.0642548" y2="41.5446115" id="Fill-81" fill="#E2E2E2"></line>
                <path d="M67.4915159,42.9015541 L62.0642548,42.9015541 C61.3147006,42.9015541 60.7073121,42.2946752 60.7073121,41.5446115 C60.7073121,40.7945478 61.3147006,40.1876688 62.0642548,40.1876688 L67.4915159,40.1876688 C68.2410701,40.1876688 68.8484586,40.7945478 68.8484586,41.5446115 C68.8484586,42.2946752 68.2410701,42.9015541 67.4915159,42.9015541" id="Fill-82" fill="#1A1A1A"></path>
                <path d="M5.0771465,19.8353121 C4.32810191,19.8353121 3.72020382,19.2284331 3.72020382,18.4783694 L3.72020382,2.19658599 C3.72020382,1.44652229 4.32810191,0.839643312 5.0771465,0.839643312 L78.3464459,0.839643312 C79.0954904,0.839643312 79.7033885,1.44652229 79.7033885,2.19658599 C79.7033885,2.94563057 79.0954904,3.55352866 78.3464459,3.55352866 L6.43408917,3.55352866 L6.43408917,18.4783694 C6.43408917,19.2284331 5.82670064,19.8353121 5.0771465,19.8353121" id="Fill-83" fill="#1A1A1A"></path>
                <path d="M5.0771465,49.6855032 C4.32810191,49.6855032 3.72020382,49.0791338 3.72020382,48.3290701 L3.72020382,32.0467771 C3.72020382,31.2967134 4.32810191,30.6903439 5.0771465,30.6903439 C5.82670064,30.6903439 6.43408917,31.2967134 6.43408917,32.0467771 L6.43408917,48.3290701 C6.43408917,49.0791338 5.82670064,49.6855032 5.0771465,49.6855032" id="Fill-84" fill="#1A1A1A"></path>
                <path d="M78.3459363,21.1922548 L29.500586,21.1922548 C28.7510318,21.1922548 28.1436433,20.5853758 28.1436433,19.8353121 C28.1436433,19.0852484 28.7510318,18.4783694 29.500586,18.4783694 L78.3459363,18.4783694 C79.096,18.4783694 79.702879,19.0852484 79.702879,19.8353121 C79.702879,20.5853758 79.096,21.1922548 78.3459363,21.1922548" id="Fill-85" fill="#1A1A1A"></path>
                <path d="M37.6413248,49.6855032 C36.8917707,49.6855032 36.2843822,49.0791338 36.2843822,48.3290701 L36.2843822,39.5086879 C36.2843822,36.8911083 38.4153376,34.7606624 41.0334268,34.7606624 C43.6515159,34.7606624 45.7824713,36.8911083 45.7824713,39.5086879 C45.7824713,40.2592611 45.1745732,40.8656306 44.4255287,40.8656306 C43.6759745,40.8656306 43.068586,40.2592611 43.068586,39.5086879 C43.068586,38.3871592 42.155465,37.4740382 41.0334268,37.4740382 C39.910879,37.4740382 38.9982675,38.3871592 38.9982675,39.5086879 L38.9982675,48.3290701 C38.9982675,49.0791338 38.3903694,49.6855032 37.6413248,49.6855032" id="Fill-86" fill="#1A1A1A"></path>
                <path d="M24.0729682,44.2585478 L10.5045605,44.2585478 C9.75500637,44.2585478 9.14761783,43.6516688 9.14761783,42.9016051 C9.14761783,42.1515414 9.75500637,41.5446624 10.5045605,41.5446624 L24.0729682,41.5446624 C24.8220127,41.5446624 25.4299108,42.1515414 25.4299108,42.9016051 C25.4299108,43.6516688 24.8220127,44.2585478 24.0729682,44.2585478" id="Fill-87" fill="#1A1A1A"></path>
                <path d="M24.0729682,55.1129682 L10.5045605,55.1129682 C9.75500637,55.1129682 9.14761783,54.5065987 9.14761783,53.7560255 C9.14761783,53.0059618 9.75500637,52.3995924 10.5045605,52.3995924 L24.0729682,52.3995924 C24.8220127,52.3995924 25.4299108,53.0059618 25.4299108,53.7560255 C25.4299108,54.5065987 24.8220127,55.1129682 24.0729682,55.1129682" id="Fill-88" fill="#1A1A1A"></path>
                <path d="M53.9231592,55.1129682 L34.9274904,55.1129682 C34.1779363,55.1129682 33.5705478,54.5065987 33.5705478,53.7560255 C33.5705478,53.0059618 34.1779363,52.3995924 34.9274904,52.3995924 L53.9231592,52.3995924 C54.6727134,52.3995924 55.2801019,53.0059618 55.2801019,53.7560255 C55.2801019,54.5065987 54.6727134,55.1129682 53.9231592,55.1129682" id="Fill-89" fill="#1A1A1A"></path>
                <path d="M53.9231592,15.7648408 L34.9274904,15.7648408 C34.1779363,15.7648408 33.5705478,15.1579618 33.5705478,14.4078981 C33.5705478,13.6578344 34.1779363,13.0509554 34.9274904,13.0509554 L53.9231592,13.0509554 C54.6727134,13.0509554 55.2801019,13.6578344 55.2801019,14.4078981 C55.2801019,15.1579618 54.6727134,15.7648408 53.9231592,15.7648408" id="Fill-90" fill="#1A1A1A"></path>
                <path d="M72.9189809,15.7648408 L64.7778344,15.7648408 C64.0287898,15.7648408 63.4208917,15.1579618 63.4208917,14.4078981 C63.4208917,13.6578344 64.0287898,13.0509554 64.7778344,13.0509554 L72.9189809,13.0509554 C73.6680255,13.0509554 74.2759236,13.6578344 74.2759236,14.4078981 C74.2759236,15.1579618 73.6680255,15.7648408 72.9189809,15.7648408" id="Fill-91" fill="#1A1A1A"></path>
            </g>
        </g>
    </g>
</svg>