<?xml version="1.0" encoding="UTF-8"?>
<svg width="90px" height="34px" viewBox="0 0 90 34" version="1.1" xmlns="http://www.w3.org/2000/svg" xmlns:xlink="http://www.w3.org/1999/xlink">
    <title>Combined Shape</title>
    <g id="Typography" stroke="none" stroke-width="1" fill="none" fill-rule="evenodd">
        <g id="Education" transform="translate(-125.000000, -1595.000000)" fill="#E5F7FF">
            <path d="M184.526419,1595.49819 C185.529903,1595.49819 186.478256,1595.88817 187.100782,1596.55682 L214.453388,1627.55867 C214.75527,1627.90532 214.95687,1628.30488 215.045553,1628.72516 L125.045338,1628.72554 C125.140237,1628.29725 125.365197,1627.8944 125.702227,1627.55867 L144.301999,1607.49222 C144.860836,1606.9057 145.671191,1606.53197 146.554566,1606.45335 C147.522928,1606.44383 148.444842,1606.80532 149.06457,1607.43754 L158.396636,1617.00601 C158.99632,1617.62966 159.894392,1617.99106 160.842281,1617.9902 C161.852796,1617.9818 162.802427,1617.57842 163.416643,1616.89666 L181.952056,1596.55682 C182.574582,1595.88817 183.522935,1595.49819 184.526419,1595.49819 Z" id="Combined-Shape"></path>
        </g>
    </g>
</svg>